<svg xmlns="http://www.w3.org/2000/svg" xmlns:xlink="http://www.w3.org/1999/xlink" width="108" height="108" version="1.2" viewBox="0 0 81 81"><defs><clipPath id="clip1"><path d="M 1.824219 0 L 78.980469 0 L 78.980469 81 L 1.824219 81 Z M 1.824219 0"/></clipPath></defs><g id="surface1"><g clip-path="url(#clip1)" clip-rule="nonzero"><path style="stroke:none;fill-rule:nonzero;fill:#bdbdbd;fill-opacity:1" d="M 40.277344 0 L 1.835938 13.410156 L 7.910156 63.34375 L 40.316406 81 L 72.894531 63.101562 L 78.964844 13.171875 Z M 40.277344 0"/></g><path style="stroke:none;fill-rule:nonzero;fill:#b71c1c;fill-opacity:1" d="M 74.957031 15.699219 L 40.402344 3.929688 L 40.402344 76.757812 L 69.476562 60.78125 Z M 74.957031 15.699219"/><path style="stroke:none;fill-rule:nonzero;fill:#dd2c00;fill-opacity:1" d="M 40.292969 3.894531 L 5.839844 15.914062 L 11.324219 61.011719 L 40.3125 76.804688 L 40.402344 76.757812 L 40.402344 3.929688 Z M 40.292969 3.894531"/><path style="stroke:none;fill-rule:nonzero;fill:#bdbdbd;fill-opacity:1" d="M 40.402344 7.355469 L 40.402344 24.859375 L 56.152344 58.910156 L 64.25 58.910156 Z M 40.402344 7.355469"/><path style="stroke:none;fill-rule:nonzero;fill:#eee;fill-opacity:1" d="M 16.550781 58.910156 L 24.648438 58.910156 L 40.402344 24.859375 L 40.402344 7.355469 Z M 16.550781 58.910156"/><path style="stroke:none;fill-rule:nonzero;fill:#bdbdbd;fill-opacity:1" d="M 40.402344 40.5 L 51.417969 40.5 L 51.417969 47.863281 L 40.402344 47.863281 Z M 40.402344 40.5"/><path style="stroke:none;fill-rule:nonzero;fill:#eee;fill-opacity:1" d="M 29.382812 40.5 L 40.402344 40.5 L 40.402344 47.863281 L 29.382812 47.863281 Z M 29.382812 40.5"/></g></svg>
