<svg xmlns="http://www.w3.org/2000/svg" xmlns:xlink="http://www.w3.org/1999/xlink" width="108" height="108" version="1.2" viewBox="0 0 81 81"><defs><clipPath id="clip1"><path d="M 13.421875 27.636719 L 15 27.636719 L 15 30 L 13.421875 30 Z M 13.421875 27.636719"/></clipPath><clipPath id="clip2"><path d="M 17 27.636719 L 19 27.636719 L 19 30 L 17 30 Z M 17 27.636719"/></clipPath><clipPath id="clip3"><path d="M 21 27.636719 L 23 27.636719 L 23 30 L 21 30 Z M 21 27.636719"/></clipPath><clipPath id="clip4"><path d="M 25 27.636719 L 27 27.636719 L 27 30 L 25 30 Z M 25 27.636719"/></clipPath><clipPath id="clip5"><path d="M 29 27.636719 L 32 27.636719 L 32 30 L 29 30 Z M 29 27.636719"/></clipPath><clipPath id="clip6"><path d="M 33 27.636719 L 36 27.636719 L 36 30 L 33 30 Z M 33 27.636719"/></clipPath><clipPath id="clip7"><path d="M 37 27.636719 L 40 27.636719 L 40 30 L 37 30 Z M 37 27.636719"/></clipPath><clipPath id="clip8"><path d="M 13.421875 31 L 15 31 L 15 34 L 13.421875 34 Z M 13.421875 31"/></clipPath><clipPath id="clip9"><path d="M 13.421875 35 L 15 35 L 15 38 L 13.421875 38 Z M 13.421875 35"/></clipPath><clipPath id="clip10"><path d="M 13.421875 39 L 15 39 L 15 42 L 13.421875 42 Z M 13.421875 39"/></clipPath><clipPath id="clip11"><path d="M 13.421875 43 L 15 43 L 15 46 L 13.421875 46 Z M 13.421875 43"/></clipPath><clipPath id="clip12"><path d="M 13.421875 47 L 15 47 L 15 50 L 13.421875 50 Z M 13.421875 47"/></clipPath><clipPath id="clip13"><path d="M 13.421875 51 L 15 51 L 15 53.136719 L 13.421875 53.136719 Z M 13.421875 51"/></clipPath><clipPath id="clip14"><path d="M 17 51 L 19 51 L 19 53.136719 L 17 53.136719 Z M 17 51"/></clipPath><clipPath id="clip15"><path d="M 21 51 L 23 51 L 23 53.136719 L 21 53.136719 Z M 21 51"/></clipPath><clipPath id="clip16"><path d="M 25 51 L 27 51 L 27 53.136719 L 25 53.136719 Z M 25 51"/></clipPath><clipPath id="clip17"><path d="M 29 51 L 32 51 L 32 53.136719 L 29 53.136719 Z M 29 51"/></clipPath><clipPath id="clip18"><path d="M 33 51 L 36 51 L 36 53.136719 L 33 53.136719 Z M 33 51"/></clipPath><clipPath id="clip19"><path d="M 37 51 L 40 51 L 40 53.136719 L 37 53.136719 Z M 37 51"/></clipPath><clipPath id="clip20"><path d="M 41 27.636719 L 44 27.636719 L 44 30 L 41 30 Z M 41 27.636719"/></clipPath><clipPath id="clip21"><path d="M 45 27.636719 L 48 27.636719 L 48 30 L 45 30 Z M 45 27.636719"/></clipPath><clipPath id="clip22"><path d="M 49 27.636719 L 52 27.636719 L 52 30 L 49 30 Z M 49 27.636719"/></clipPath><clipPath id="clip23"><path d="M 53 27.636719 L 56 27.636719 L 56 30 L 53 30 Z M 53 27.636719"/></clipPath><clipPath id="clip24"><path d="M 57 27.636719 L 60 27.636719 L 60 30 L 57 30 Z M 57 27.636719"/></clipPath><clipPath id="clip25"><path d="M 61 27.636719 L 64 27.636719 L 64 30 L 61 30 Z M 61 27.636719"/></clipPath><clipPath id="clip26"><path d="M 65 27.636719 L 67.421875 27.636719 L 67.421875 30 L 65 30 Z M 65 27.636719"/></clipPath><clipPath id="clip27"><path d="M 65 31 L 67.421875 31 L 67.421875 34 L 65 34 Z M 65 31"/></clipPath><clipPath id="clip28"><path d="M 65 35 L 67.421875 35 L 67.421875 38 L 65 38 Z M 65 35"/></clipPath><clipPath id="clip29"><path d="M 65 39 L 67.421875 39 L 67.421875 42 L 65 42 Z M 65 39"/></clipPath><clipPath id="clip30"><path d="M 65 43 L 67.421875 43 L 67.421875 46 L 65 46 Z M 65 43"/></clipPath><clipPath id="clip31"><path d="M 65 47 L 67.421875 47 L 67.421875 50 L 65 50 Z M 65 47"/></clipPath><clipPath id="clip32"><path d="M 41 51 L 44 51 L 44 53.136719 L 41 53.136719 Z M 41 51"/></clipPath><clipPath id="clip33"><path d="M 45 51 L 48 51 L 48 53.136719 L 45 53.136719 Z M 45 51"/></clipPath><clipPath id="clip34"><path d="M 49 51 L 52 51 L 52 53.136719 L 49 53.136719 Z M 49 51"/></clipPath><clipPath id="clip35"><path d="M 53 51 L 56 51 L 56 53.136719 L 53 53.136719 Z M 53 51"/></clipPath><clipPath id="clip36"><path d="M 57 51 L 60 51 L 60 53.136719 L 57 53.136719 Z M 57 51"/></clipPath><clipPath id="clip37"><path d="M 61 51 L 64 51 L 64 53.136719 L 61 53.136719 Z M 61 51"/></clipPath><clipPath id="clip38"><path d="M 65 51 L 67.421875 51 L 67.421875 53.136719 L 65 53.136719 Z M 65 51"/></clipPath></defs><g id="surface1"><g clip-path="url(#clip1)" clip-rule="nonzero"><path style="stroke:none;fill-rule:nonzero;fill:#fff;fill-opacity:1" d="M 14.144531 27.636719 C 13.753906 27.636719 13.433594 27.953125 13.433594 28.34375 C 13.433594 28.734375 13.753906 29.050781 14.144531 29.050781 C 14.535156 29.050781 14.855469 28.734375 14.855469 28.34375 C 14.855469 27.953125 14.535156 27.636719 14.144531 27.636719"/></g><g clip-path="url(#clip2)" clip-rule="nonzero"><path style="stroke:none;fill-rule:nonzero;fill:#fff;fill-opacity:1" d="M 18.1875 27.636719 C 17.796875 27.636719 17.476562 27.953125 17.476562 28.34375 C 17.476562 28.734375 17.796875 29.050781 18.1875 29.050781 C 18.582031 29.050781 18.898438 28.734375 18.898438 28.34375 C 18.898438 27.953125 18.582031 27.636719 18.1875 27.636719"/></g><g clip-path="url(#clip3)" clip-rule="nonzero"><path style="stroke:none;fill-rule:nonzero;fill:#fff;fill-opacity:1" d="M 22.230469 27.636719 C 21.839844 27.636719 21.519531 27.953125 21.519531 28.34375 C 21.519531 28.734375 21.839844 29.050781 22.230469 29.050781 C 22.625 29.050781 22.941406 28.734375 22.941406 28.34375 C 22.941406 27.953125 22.625 27.636719 22.230469 27.636719"/></g><g clip-path="url(#clip4)" clip-rule="nonzero"><path style="stroke:none;fill-rule:nonzero;fill:#fff;fill-opacity:1" d="M 26.273438 27.636719 C 25.882812 27.636719 25.5625 27.953125 25.5625 28.34375 C 25.5625 28.734375 25.882812 29.050781 26.273438 29.050781 C 26.667969 29.050781 26.984375 28.734375 26.984375 28.34375 C 26.984375 27.953125 26.667969 27.636719 26.273438 27.636719"/></g><g clip-path="url(#clip5)" clip-rule="nonzero"><path style="stroke:none;fill-rule:nonzero;fill:#fff;fill-opacity:1" d="M 30.316406 27.636719 C 29.925781 27.636719 29.609375 27.953125 29.609375 28.34375 C 29.609375 28.734375 29.925781 29.050781 30.316406 29.050781 C 30.710938 29.050781 31.027344 28.734375 31.027344 28.34375 C 31.027344 27.953125 30.710938 27.636719 30.316406 27.636719"/></g><g clip-path="url(#clip6)" clip-rule="nonzero"><path style="stroke:none;fill-rule:nonzero;fill:#fff;fill-opacity:1" d="M 34.359375 27.636719 C 33.96875 27.636719 33.652344 27.953125 33.652344 28.34375 C 33.652344 28.734375 33.96875 29.050781 34.359375 29.050781 C 34.753906 29.050781 35.070312 28.734375 35.070312 28.34375 C 35.070312 27.953125 34.753906 27.636719 34.359375 27.636719"/></g><g clip-path="url(#clip7)" clip-rule="nonzero"><path style="stroke:none;fill-rule:nonzero;fill:#fff;fill-opacity:1" d="M 38.402344 27.636719 C 38.011719 27.636719 37.695312 27.953125 37.695312 28.34375 C 37.695312 28.734375 38.011719 29.050781 38.402344 29.050781 C 38.796875 29.050781 39.113281 28.734375 39.113281 28.34375 C 39.113281 27.953125 38.796875 27.636719 38.402344 27.636719"/></g><g clip-path="url(#clip8)" clip-rule="nonzero"><path style="stroke:none;fill-rule:nonzero;fill:#fff;fill-opacity:1" d="M 14.144531 31.65625 C 13.753906 31.65625 13.433594 31.972656 13.433594 32.363281 C 13.433594 32.75 13.753906 33.070312 14.144531 33.070312 C 14.535156 33.070312 14.855469 32.75 14.855469 32.363281 C 14.855469 31.972656 14.535156 31.65625 14.144531 31.65625"/></g><path style="stroke:none;fill-rule:nonzero;fill:#fff;fill-opacity:1" d="M 18.1875 31.65625 C 17.796875 31.65625 17.476562 31.972656 17.476562 32.363281 C 17.476562 32.75 17.796875 33.070312 18.1875 33.070312 C 18.582031 33.070312 18.898438 32.75 18.898438 32.363281 C 18.898438 31.972656 18.582031 31.65625 18.1875 31.65625"/><path style="stroke:none;fill-rule:nonzero;fill:#fff;fill-opacity:1" d="M 22.230469 31.65625 C 21.839844 31.65625 21.519531 31.972656 21.519531 32.363281 C 21.519531 32.75 21.839844 33.070312 22.230469 33.070312 C 22.625 33.070312 22.941406 32.75 22.941406 32.363281 C 22.941406 31.972656 22.625 31.65625 22.230469 31.65625"/><path style="stroke:none;fill-rule:nonzero;fill:#fff;fill-opacity:1" d="M 26.273438 31.65625 C 25.882812 31.65625 25.5625 31.972656 25.5625 32.363281 C 25.5625 32.75 25.882812 33.070312 26.273438 33.070312 C 26.667969 33.070312 26.984375 32.75 26.984375 32.363281 C 26.984375 31.972656 26.667969 31.65625 26.273438 31.65625"/><path style="stroke:none;fill-rule:nonzero;fill:#fff;fill-opacity:1" d="M 30.316406 31.65625 C 29.925781 31.65625 29.609375 31.972656 29.609375 32.363281 C 29.609375 32.75 29.925781 33.070312 30.316406 33.070312 C 30.710938 33.070312 31.027344 32.75 31.027344 32.363281 C 31.027344 31.972656 30.710938 31.65625 30.316406 31.65625"/><path style="stroke:none;fill-rule:nonzero;fill:#fff;fill-opacity:1" d="M 34.359375 31.65625 C 33.96875 31.65625 33.652344 31.972656 33.652344 32.363281 C 33.652344 32.75 33.96875 33.070312 34.359375 33.070312 C 34.753906 33.070312 35.070312 32.75 35.070312 32.363281 C 35.070312 31.972656 34.753906 31.65625 34.359375 31.65625"/><path style="stroke:none;fill-rule:nonzero;fill:#fff;fill-opacity:1" d="M 38.402344 31.65625 C 38.011719 31.65625 37.695312 31.972656 37.695312 32.363281 C 37.695312 32.75 38.011719 33.070312 38.402344 33.070312 C 38.796875 33.070312 39.113281 32.75 39.113281 32.363281 C 39.113281 31.972656 38.796875 31.65625 38.402344 31.65625"/><g clip-path="url(#clip9)" clip-rule="nonzero"><path style="stroke:none;fill-rule:nonzero;fill:#fff;fill-opacity:1" d="M 14.144531 35.648438 C 13.753906 35.648438 13.433594 35.964844 13.433594 36.355469 C 13.433594 36.746094 13.753906 37.0625 14.144531 37.0625 C 14.535156 37.0625 14.855469 36.746094 14.855469 36.355469 C 14.855469 35.964844 14.535156 35.648438 14.144531 35.648438"/></g><path style="stroke:none;fill-rule:nonzero;fill:#fff;fill-opacity:1" d="M 18.1875 35.648438 C 17.796875 35.648438 17.476562 35.964844 17.476562 36.355469 C 17.476562 36.746094 17.796875 37.0625 18.1875 37.0625 C 18.582031 37.0625 18.898438 36.746094 18.898438 36.355469 C 18.898438 35.964844 18.582031 35.648438 18.1875 35.648438"/><path style="stroke:none;fill-rule:nonzero;fill:#fff;fill-opacity:1" d="M 22.230469 35.648438 C 21.839844 35.648438 21.519531 35.964844 21.519531 36.355469 C 21.519531 36.746094 21.839844 37.0625 22.230469 37.0625 C 22.625 37.0625 22.941406 36.746094 22.941406 36.355469 C 22.941406 35.964844 22.625 35.648438 22.230469 35.648438"/><path style="stroke:none;fill-rule:nonzero;fill:#fff;fill-opacity:1" d="M 26.273438 35.648438 C 25.882812 35.648438 25.5625 35.964844 25.5625 36.355469 C 25.5625 36.746094 25.882812 37.0625 26.273438 37.0625 C 26.667969 37.0625 26.984375 36.746094 26.984375 36.355469 C 26.984375 35.964844 26.667969 35.648438 26.273438 35.648438"/><path style="stroke:none;fill-rule:nonzero;fill:#fff;fill-opacity:1" d="M 30.316406 35.648438 C 29.925781 35.648438 29.609375 35.964844 29.609375 36.355469 C 29.609375 36.746094 29.925781 37.0625 30.316406 37.0625 C 30.710938 37.0625 31.027344 36.746094 31.027344 36.355469 C 31.027344 35.964844 30.710938 35.648438 30.316406 35.648438"/><path style="stroke:none;fill-rule:nonzero;fill:#fff;fill-opacity:1" d="M 34.359375 35.648438 C 33.96875 35.648438 33.652344 35.964844 33.652344 36.355469 C 33.652344 36.746094 33.96875 37.0625 34.359375 37.0625 C 34.753906 37.0625 35.070312 36.746094 35.070312 36.355469 C 35.070312 35.964844 34.753906 35.648438 34.359375 35.648438"/><path style="stroke:none;fill-rule:nonzero;fill:#fff;fill-opacity:1" d="M 38.402344 35.648438 C 38.011719 35.648438 37.695312 35.964844 37.695312 36.355469 C 37.695312 36.746094 38.011719 37.0625 38.402344 37.0625 C 38.796875 37.0625 39.113281 36.746094 39.113281 36.355469 C 39.113281 35.964844 38.796875 35.648438 38.402344 35.648438"/><g clip-path="url(#clip10)" clip-rule="nonzero"><path style="stroke:none;fill-rule:nonzero;fill:#fff;fill-opacity:1" d="M 14.144531 39.667969 C 13.753906 39.667969 13.433594 39.984375 13.433594 40.375 C 13.433594 40.765625 13.753906 41.082031 14.144531 41.082031 C 14.535156 41.082031 14.855469 40.765625 14.855469 40.375 C 14.855469 39.984375 14.535156 39.667969 14.144531 39.667969"/></g><path style="stroke:none;fill-rule:nonzero;fill:#fff;fill-opacity:1" d="M 18.1875 39.667969 C 17.796875 39.667969 17.476562 39.984375 17.476562 40.375 C 17.476562 40.765625 17.796875 41.082031 18.1875 41.082031 C 18.582031 41.082031 18.898438 40.765625 18.898438 40.375 C 18.898438 39.984375 18.582031 39.667969 18.1875 39.667969"/><path style="stroke:none;fill-rule:nonzero;fill:#fff;fill-opacity:1" d="M 22.230469 39.667969 C 21.839844 39.667969 21.519531 39.984375 21.519531 40.375 C 21.519531 40.765625 21.839844 41.082031 22.230469 41.082031 C 22.625 41.082031 22.941406 40.765625 22.941406 40.375 C 22.941406 39.984375 22.625 39.667969 22.230469 39.667969"/><path style="stroke:none;fill-rule:nonzero;fill:#fff;fill-opacity:1" d="M 26.273438 39.667969 C 25.882812 39.667969 25.5625 39.984375 25.5625 40.375 C 25.5625 40.765625 25.882812 41.082031 26.273438 41.082031 C 26.667969 41.082031 26.984375 40.765625 26.984375 40.375 C 26.984375 39.984375 26.667969 39.667969 26.273438 39.667969"/><path style="stroke:none;fill-rule:nonzero;fill:#fff;fill-opacity:1" d="M 30.316406 39.667969 C 29.925781 39.667969 29.609375 39.984375 29.609375 40.375 C 29.609375 40.765625 29.925781 41.082031 30.316406 41.082031 C 30.710938 41.082031 31.027344 40.765625 31.027344 40.375 C 31.027344 39.984375 30.710938 39.667969 30.316406 39.667969"/><path style="stroke:none;fill-rule:nonzero;fill:#fff;fill-opacity:1" d="M 34.359375 39.667969 C 33.96875 39.667969 33.652344 39.984375 33.652344 40.375 C 33.652344 40.765625 33.96875 41.082031 34.359375 41.082031 C 34.753906 41.082031 35.070312 40.765625 35.070312 40.375 C 35.070312 39.984375 34.753906 39.667969 34.359375 39.667969"/><path style="stroke:none;fill-rule:nonzero;fill:#fff;fill-opacity:1" d="M 38.402344 39.667969 C 38.011719 39.667969 37.695312 39.984375 37.695312 40.375 C 37.695312 40.765625 38.011719 41.082031 38.402344 41.082031 C 38.796875 41.082031 39.113281 40.765625 39.113281 40.375 C 39.113281 39.984375 38.796875 39.667969 38.402344 39.667969"/><g clip-path="url(#clip11)" clip-rule="nonzero"><path style="stroke:none;fill-rule:nonzero;fill:#fff;fill-opacity:1" d="M 14.144531 43.6875 C 13.753906 43.6875 13.433594 44.003906 13.433594 44.394531 C 13.433594 44.78125 13.753906 45.101562 14.144531 45.101562 C 14.535156 45.101562 14.855469 44.78125 14.855469 44.394531 C 14.855469 44.003906 14.535156 43.6875 14.144531 43.6875"/></g><path style="stroke:none;fill-rule:nonzero;fill:#fff;fill-opacity:1" d="M 18.1875 43.6875 C 17.796875 43.6875 17.476562 44.003906 17.476562 44.394531 C 17.476562 44.78125 17.796875 45.101562 18.1875 45.101562 C 18.582031 45.101562 18.898438 44.78125 18.898438 44.394531 C 18.898438 44.003906 18.582031 43.6875 18.1875 43.6875"/><path style="stroke:none;fill-rule:nonzero;fill:#fff;fill-opacity:1" d="M 22.230469 43.6875 C 21.839844 43.6875 21.519531 44.003906 21.519531 44.394531 C 21.519531 44.78125 21.839844 45.101562 22.230469 45.101562 C 22.625 45.101562 22.941406 44.78125 22.941406 44.394531 C 22.941406 44.003906 22.625 43.6875 22.230469 43.6875"/><path style="stroke:none;fill-rule:nonzero;fill:#fff;fill-opacity:1" d="M 26.273438 43.6875 C 25.882812 43.6875 25.5625 44.003906 25.5625 44.394531 C 25.5625 44.78125 25.882812 45.101562 26.273438 45.101562 C 26.667969 45.101562 26.984375 44.78125 26.984375 44.394531 C 26.984375 44.003906 26.667969 43.6875 26.273438 43.6875"/><path style="stroke:none;fill-rule:nonzero;fill:#fff;fill-opacity:1" d="M 30.316406 43.6875 C 29.925781 43.6875 29.609375 44.003906 29.609375 44.394531 C 29.609375 44.78125 29.925781 45.101562 30.316406 45.101562 C 30.710938 45.101562 31.027344 44.78125 31.027344 44.394531 C 31.027344 44.003906 30.710938 43.6875 30.316406 43.6875"/><path style="stroke:none;fill-rule:nonzero;fill:#fff;fill-opacity:1" d="M 34.359375 43.6875 C 33.96875 43.6875 33.652344 44.003906 33.652344 44.394531 C 33.652344 44.78125 33.96875 45.101562 34.359375 45.101562 C 34.753906 45.101562 35.070312 44.78125 35.070312 44.394531 C 35.070312 44.003906 34.753906 43.6875 34.359375 43.6875"/><path style="stroke:none;fill-rule:nonzero;fill:#fff;fill-opacity:1" d="M 38.402344 43.6875 C 38.011719 43.6875 37.695312 44.003906 37.695312 44.394531 C 37.695312 44.78125 38.011719 45.101562 38.402344 45.101562 C 38.796875 45.101562 39.113281 44.78125 39.113281 44.394531 C 39.113281 44.003906 38.796875 43.6875 38.402344 43.6875"/><g clip-path="url(#clip12)" clip-rule="nonzero"><path style="stroke:none;fill-rule:nonzero;fill:#fff;fill-opacity:1" d="M 14.144531 47.679688 C 13.753906 47.679688 13.433594 47.996094 13.433594 48.386719 C 13.433594 48.777344 13.753906 49.09375 14.144531 49.09375 C 14.535156 49.09375 14.855469 48.777344 14.855469 48.386719 C 14.855469 47.996094 14.535156 47.679688 14.144531 47.679688"/></g><path style="stroke:none;fill-rule:nonzero;fill:#fff;fill-opacity:1" d="M 18.1875 47.679688 C 17.796875 47.679688 17.476562 47.996094 17.476562 48.386719 C 17.476562 48.777344 17.796875 49.09375 18.1875 49.09375 C 18.582031 49.09375 18.898438 48.777344 18.898438 48.386719 C 18.898438 47.996094 18.582031 47.679688 18.1875 47.679688"/><path style="stroke:none;fill-rule:nonzero;fill:#fff;fill-opacity:1" d="M 22.230469 47.679688 C 21.839844 47.679688 21.519531 47.996094 21.519531 48.386719 C 21.519531 48.777344 21.839844 49.09375 22.230469 49.09375 C 22.625 49.09375 22.941406 48.777344 22.941406 48.386719 C 22.941406 47.996094 22.625 47.679688 22.230469 47.679688"/><path style="stroke:none;fill-rule:nonzero;fill:#fff;fill-opacity:1" d="M 26.273438 47.679688 C 25.882812 47.679688 25.5625 47.996094 25.5625 48.386719 C 25.5625 48.777344 25.882812 49.09375 26.273438 49.09375 C 26.667969 49.09375 26.984375 48.777344 26.984375 48.386719 C 26.984375 47.996094 26.667969 47.679688 26.273438 47.679688"/><path style="stroke:none;fill-rule:nonzero;fill:#fff;fill-opacity:1" d="M 30.316406 47.679688 C 29.925781 47.679688 29.609375 47.996094 29.609375 48.386719 C 29.609375 48.777344 29.925781 49.09375 30.316406 49.09375 C 30.710938 49.09375 31.027344 48.777344 31.027344 48.386719 C 31.027344 47.996094 30.710938 47.679688 30.316406 47.679688"/><path style="stroke:none;fill-rule:nonzero;fill:#fff;fill-opacity:1" d="M 34.359375 47.679688 C 33.96875 47.679688 33.652344 47.996094 33.652344 48.386719 C 33.652344 48.777344 33.96875 49.09375 34.359375 49.09375 C 34.753906 49.09375 35.070312 48.777344 35.070312 48.386719 C 35.070312 47.996094 34.753906 47.679688 34.359375 47.679688"/><path style="stroke:none;fill-rule:nonzero;fill:#fff;fill-opacity:1" d="M 38.402344 47.679688 C 38.011719 47.679688 37.695312 47.996094 37.695312 48.386719 C 37.695312 48.777344 38.011719 49.09375 38.402344 49.09375 C 38.796875 49.09375 39.113281 48.777344 39.113281 48.386719 C 39.113281 47.996094 38.796875 47.679688 38.402344 47.679688"/><g clip-path="url(#clip13)" clip-rule="nonzero"><path style="stroke:none;fill-rule:nonzero;fill:#fff;fill-opacity:1" d="M 14.144531 51.726562 C 13.753906 51.726562 13.433594 52.042969 13.433594 52.433594 C 13.433594 52.820312 13.753906 53.136719 14.144531 53.136719 C 14.535156 53.136719 14.855469 52.820312 14.855469 52.433594 C 14.855469 52.042969 14.535156 51.726562 14.144531 51.726562"/></g><g clip-path="url(#clip14)" clip-rule="nonzero"><path style="stroke:none;fill-rule:nonzero;fill:#fff;fill-opacity:1" d="M 18.1875 51.726562 C 17.796875 51.726562 17.476562 52.042969 17.476562 52.433594 C 17.476562 52.820312 17.796875 53.136719 18.1875 53.136719 C 18.582031 53.136719 18.898438 52.820312 18.898438 52.433594 C 18.898438 52.042969 18.582031 51.726562 18.1875 51.726562"/></g><g clip-path="url(#clip15)" clip-rule="nonzero"><path style="stroke:none;fill-rule:nonzero;fill:#fff;fill-opacity:1" d="M 22.230469 51.726562 C 21.839844 51.726562 21.519531 52.042969 21.519531 52.433594 C 21.519531 52.820312 21.839844 53.136719 22.230469 53.136719 C 22.625 53.136719 22.941406 52.820312 22.941406 52.433594 C 22.941406 52.042969 22.625 51.726562 22.230469 51.726562"/></g><g clip-path="url(#clip16)" clip-rule="nonzero"><path style="stroke:none;fill-rule:nonzero;fill:#fff;fill-opacity:1" d="M 26.273438 51.726562 C 25.882812 51.726562 25.5625 52.042969 25.5625 52.433594 C 25.5625 52.820312 25.882812 53.136719 26.273438 53.136719 C 26.667969 53.136719 26.984375 52.820312 26.984375 52.433594 C 26.984375 52.042969 26.667969 51.726562 26.273438 51.726562"/></g><g clip-path="url(#clip17)" clip-rule="nonzero"><path style="stroke:none;fill-rule:nonzero;fill:#fff;fill-opacity:1" d="M 30.316406 51.726562 C 29.925781 51.726562 29.609375 52.042969 29.609375 52.433594 C 29.609375 52.820312 29.925781 53.136719 30.316406 53.136719 C 30.710938 53.136719 31.027344 52.820312 31.027344 52.433594 C 31.027344 52.042969 30.710938 51.726562 30.316406 51.726562"/></g><g clip-path="url(#clip18)" clip-rule="nonzero"><path style="stroke:none;fill-rule:nonzero;fill:#fff;fill-opacity:1" d="M 34.359375 51.726562 C 33.96875 51.726562 33.652344 52.042969 33.652344 52.433594 C 33.652344 52.820312 33.96875 53.136719 34.359375 53.136719 C 34.753906 53.136719 35.070312 52.820312 35.070312 52.433594 C 35.070312 52.042969 34.753906 51.726562 34.359375 51.726562"/></g><g clip-path="url(#clip19)" clip-rule="nonzero"><path style="stroke:none;fill-rule:nonzero;fill:#fff;fill-opacity:1" d="M 38.402344 51.726562 C 38.011719 51.726562 37.695312 52.042969 37.695312 52.433594 C 37.695312 52.820312 38.011719 53.136719 38.402344 53.136719 C 38.796875 53.136719 39.113281 52.820312 39.113281 52.433594 C 39.113281 52.042969 38.796875 51.726562 38.402344 51.726562"/></g><g clip-path="url(#clip20)" clip-rule="nonzero"><path style="stroke:none;fill-rule:nonzero;fill:#fff;fill-opacity:1" d="M 42.445312 27.636719 C 42.054688 27.636719 41.734375 27.953125 41.734375 28.34375 C 41.734375 28.734375 42.054688 29.050781 42.445312 29.050781 C 42.835938 29.050781 43.15625 28.734375 43.15625 28.34375 C 43.15625 27.953125 42.835938 27.636719 42.445312 27.636719"/></g><g clip-path="url(#clip21)" clip-rule="nonzero"><path style="stroke:none;fill-rule:nonzero;fill:#fff;fill-opacity:1" d="M 46.488281 27.636719 C 46.097656 27.636719 45.777344 27.953125 45.777344 28.34375 C 45.777344 28.734375 46.097656 29.050781 46.488281 29.050781 C 46.878906 29.050781 47.199219 28.734375 47.199219 28.34375 C 47.199219 27.953125 46.878906 27.636719 46.488281 27.636719"/></g><g clip-path="url(#clip22)" clip-rule="nonzero"><path style="stroke:none;fill-rule:nonzero;fill:#fff;fill-opacity:1" d="M 50.53125 27.636719 C 50.140625 27.636719 49.820312 27.953125 49.820312 28.34375 C 49.820312 28.734375 50.140625 29.050781 50.53125 29.050781 C 50.925781 29.050781 51.242188 28.734375 51.242188 28.34375 C 51.242188 27.953125 50.925781 27.636719 50.53125 27.636719"/></g><g clip-path="url(#clip23)" clip-rule="nonzero"><path style="stroke:none;fill-rule:nonzero;fill:#fff;fill-opacity:1" d="M 54.574219 27.636719 C 54.183594 27.636719 53.863281 27.953125 53.863281 28.34375 C 53.863281 28.734375 54.183594 29.050781 54.574219 29.050781 C 54.96875 29.050781 55.285156 28.734375 55.285156 28.34375 C 55.285156 27.953125 54.96875 27.636719 54.574219 27.636719"/></g><g clip-path="url(#clip24)" clip-rule="nonzero"><path style="stroke:none;fill-rule:nonzero;fill:#fff;fill-opacity:1" d="M 58.617188 27.636719 C 58.226562 27.636719 57.910156 27.953125 57.910156 28.34375 C 57.910156 28.734375 58.226562 29.050781 58.617188 29.050781 C 59.011719 29.050781 59.328125 28.734375 59.328125 28.34375 C 59.328125 27.953125 59.011719 27.636719 58.617188 27.636719"/></g><g clip-path="url(#clip25)" clip-rule="nonzero"><path style="stroke:none;fill-rule:nonzero;fill:#fff;fill-opacity:1" d="M 62.660156 27.636719 C 62.269531 27.636719 61.953125 27.953125 61.953125 28.34375 C 61.953125 28.734375 62.269531 29.050781 62.660156 29.050781 C 63.054688 29.050781 63.371094 28.734375 63.371094 28.34375 C 63.371094 27.953125 63.054688 27.636719 62.660156 27.636719"/></g><g clip-path="url(#clip26)" clip-rule="nonzero"><path style="stroke:none;fill-rule:nonzero;fill:#fff;fill-opacity:1" d="M 66.703125 29.050781 C 67.097656 29.050781 67.414062 28.734375 67.414062 28.34375 C 67.414062 27.953125 67.097656 27.636719 66.703125 27.636719 C 66.3125 27.636719 65.996094 27.953125 65.996094 28.34375 C 65.996094 28.734375 66.3125 29.050781 66.703125 29.050781"/></g><path style="stroke:none;fill-rule:nonzero;fill:#fff;fill-opacity:1" d="M 42.445312 31.65625 C 42.054688 31.65625 41.734375 31.972656 41.734375 32.363281 C 41.734375 32.75 42.054688 33.070312 42.445312 33.070312 C 42.835938 33.070312 43.15625 32.75 43.15625 32.363281 C 43.15625 31.972656 42.835938 31.65625 42.445312 31.65625"/><path style="stroke:none;fill-rule:nonzero;fill:#fff;fill-opacity:1" d="M 46.488281 31.65625 C 46.097656 31.65625 45.777344 31.972656 45.777344 32.363281 C 45.777344 32.75 46.097656 33.070312 46.488281 33.070312 C 46.878906 33.070312 47.199219 32.75 47.199219 32.363281 C 47.199219 31.972656 46.878906 31.65625 46.488281 31.65625"/><path style="stroke:none;fill-rule:nonzero;fill:#fff;fill-opacity:1" d="M 50.53125 31.65625 C 50.140625 31.65625 49.820312 31.972656 49.820312 32.363281 C 49.820312 32.75 50.140625 33.070312 50.53125 33.070312 C 50.925781 33.070312 51.242188 32.75 51.242188 32.363281 C 51.242188 31.972656 50.925781 31.65625 50.53125 31.65625"/><path style="stroke:none;fill-rule:nonzero;fill:#fff;fill-opacity:1" d="M 54.574219 31.65625 C 54.183594 31.65625 53.863281 31.972656 53.863281 32.363281 C 53.863281 32.75 54.183594 33.070312 54.574219 33.070312 C 54.96875 33.070312 55.285156 32.75 55.285156 32.363281 C 55.285156 31.972656 54.96875 31.65625 54.574219 31.65625"/><path style="stroke:none;fill-rule:nonzero;fill:#fff;fill-opacity:1" d="M 58.617188 31.65625 C 58.226562 31.65625 57.910156 31.972656 57.910156 32.363281 C 57.910156 32.75 58.226562 33.070312 58.617188 33.070312 C 59.011719 33.070312 59.328125 32.75 59.328125 32.363281 C 59.328125 31.972656 59.011719 31.65625 58.617188 31.65625"/><path style="stroke:none;fill-rule:nonzero;fill:#fff;fill-opacity:1" d="M 62.660156 31.65625 C 62.269531 31.65625 61.953125 31.972656 61.953125 32.363281 C 61.953125 32.75 62.269531 33.070312 62.660156 33.070312 C 63.054688 33.070312 63.371094 32.75 63.371094 32.363281 C 63.371094 31.972656 63.054688 31.65625 62.660156 31.65625"/><g clip-path="url(#clip27)" clip-rule="nonzero"><path style="stroke:none;fill-rule:nonzero;fill:#fff;fill-opacity:1" d="M 66.703125 31.65625 C 66.3125 31.65625 65.996094 31.972656 65.996094 32.363281 C 65.996094 32.75 66.3125 33.070312 66.703125 33.070312 C 67.097656 33.070312 67.414062 32.75 67.414062 32.363281 C 67.414062 31.972656 67.097656 31.65625 66.703125 31.65625"/></g><path style="stroke:none;fill-rule:nonzero;fill:#fff;fill-opacity:1" d="M 42.445312 35.648438 C 42.054688 35.648438 41.734375 35.964844 41.734375 36.355469 C 41.734375 36.746094 42.054688 37.0625 42.445312 37.0625 C 42.835938 37.0625 43.15625 36.746094 43.15625 36.355469 C 43.15625 35.964844 42.835938 35.648438 42.445312 35.648438"/><path style="stroke:none;fill-rule:nonzero;fill:#fff;fill-opacity:1" d="M 46.488281 35.648438 C 46.097656 35.648438 45.777344 35.964844 45.777344 36.355469 C 45.777344 36.746094 46.097656 37.0625 46.488281 37.0625 C 46.878906 37.0625 47.199219 36.746094 47.199219 36.355469 C 47.199219 35.964844 46.878906 35.648438 46.488281 35.648438"/><path style="stroke:none;fill-rule:nonzero;fill:#fff;fill-opacity:1" d="M 50.53125 35.648438 C 50.140625 35.648438 49.820312 35.964844 49.820312 36.355469 C 49.820312 36.746094 50.140625 37.0625 50.53125 37.0625 C 50.925781 37.0625 51.242188 36.746094 51.242188 36.355469 C 51.242188 35.964844 50.925781 35.648438 50.53125 35.648438"/><path style="stroke:none;fill-rule:nonzero;fill:#fff;fill-opacity:1" d="M 54.574219 35.648438 C 54.183594 35.648438 53.863281 35.964844 53.863281 36.355469 C 53.863281 36.746094 54.183594 37.0625 54.574219 37.0625 C 54.96875 37.0625 55.285156 36.746094 55.285156 36.355469 C 55.285156 35.964844 54.96875 35.648438 54.574219 35.648438"/><path style="stroke:none;fill-rule:nonzero;fill:#fff;fill-opacity:1" d="M 58.617188 35.648438 C 58.226562 35.648438 57.910156 35.964844 57.910156 36.355469 C 57.910156 36.746094 58.226562 37.0625 58.617188 37.0625 C 59.011719 37.0625 59.328125 36.746094 59.328125 36.355469 C 59.328125 35.964844 59.011719 35.648438 58.617188 35.648438"/><path style="stroke:none;fill-rule:nonzero;fill:#fff;fill-opacity:1" d="M 62.660156 35.648438 C 62.269531 35.648438 61.953125 35.964844 61.953125 36.355469 C 61.953125 36.746094 62.269531 37.0625 62.660156 37.0625 C 63.054688 37.0625 63.371094 36.746094 63.371094 36.355469 C 63.371094 35.964844 63.054688 35.648438 62.660156 35.648438"/><g clip-path="url(#clip28)" clip-rule="nonzero"><path style="stroke:none;fill-rule:nonzero;fill:#fff;fill-opacity:1" d="M 66.703125 35.648438 C 66.3125 35.648438 65.996094 35.964844 65.996094 36.355469 C 65.996094 36.746094 66.3125 37.0625 66.703125 37.0625 C 67.097656 37.0625 67.414062 36.746094 67.414062 36.355469 C 67.414062 35.964844 67.097656 35.648438 66.703125 35.648438"/></g><path style="stroke:none;fill-rule:nonzero;fill:#fff;fill-opacity:1" d="M 42.445312 39.667969 C 42.054688 39.667969 41.734375 39.984375 41.734375 40.375 C 41.734375 40.765625 42.054688 41.082031 42.445312 41.082031 C 42.835938 41.082031 43.15625 40.765625 43.15625 40.375 C 43.15625 39.984375 42.835938 39.667969 42.445312 39.667969"/><path style="stroke:none;fill-rule:nonzero;fill:#fff;fill-opacity:1" d="M 46.488281 39.667969 C 46.097656 39.667969 45.777344 39.984375 45.777344 40.375 C 45.777344 40.765625 46.097656 41.082031 46.488281 41.082031 C 46.878906 41.082031 47.199219 40.765625 47.199219 40.375 C 47.199219 39.984375 46.878906 39.667969 46.488281 39.667969"/><path style="stroke:none;fill-rule:nonzero;fill:#fff;fill-opacity:1" d="M 50.53125 39.667969 C 50.140625 39.667969 49.820312 39.984375 49.820312 40.375 C 49.820312 40.765625 50.140625 41.082031 50.53125 41.082031 C 50.925781 41.082031 51.242188 40.765625 51.242188 40.375 C 51.242188 39.984375 50.925781 39.667969 50.53125 39.667969"/><path style="stroke:none;fill-rule:nonzero;fill:#fff;fill-opacity:1" d="M 54.574219 39.667969 C 54.183594 39.667969 53.863281 39.984375 53.863281 40.375 C 53.863281 40.765625 54.183594 41.082031 54.574219 41.082031 C 54.96875 41.082031 55.285156 40.765625 55.285156 40.375 C 55.285156 39.984375 54.96875 39.667969 54.574219 39.667969"/><path style="stroke:none;fill-rule:nonzero;fill:#fff;fill-opacity:1" d="M 58.617188 39.667969 C 58.226562 39.667969 57.910156 39.984375 57.910156 40.375 C 57.910156 40.765625 58.226562 41.082031 58.617188 41.082031 C 59.011719 41.082031 59.328125 40.765625 59.328125 40.375 C 59.328125 39.984375 59.011719 39.667969 58.617188 39.667969"/><path style="stroke:none;fill-rule:nonzero;fill:#fff;fill-opacity:1" d="M 62.660156 39.667969 C 62.269531 39.667969 61.953125 39.984375 61.953125 40.375 C 61.953125 40.765625 62.269531 41.082031 62.660156 41.082031 C 63.054688 41.082031 63.371094 40.765625 63.371094 40.375 C 63.371094 39.984375 63.054688 39.667969 62.660156 39.667969"/><g clip-path="url(#clip29)" clip-rule="nonzero"><path style="stroke:none;fill-rule:nonzero;fill:#fff;fill-opacity:1" d="M 66.703125 39.667969 C 66.3125 39.667969 65.996094 39.984375 65.996094 40.375 C 65.996094 40.765625 66.3125 41.082031 66.703125 41.082031 C 67.097656 41.082031 67.414062 40.765625 67.414062 40.375 C 67.414062 39.984375 67.097656 39.667969 66.703125 39.667969"/></g><path style="stroke:none;fill-rule:nonzero;fill:#fff;fill-opacity:1" d="M 42.445312 43.6875 C 42.054688 43.6875 41.734375 44.003906 41.734375 44.394531 C 41.734375 44.78125 42.054688 45.101562 42.445312 45.101562 C 42.835938 45.101562 43.15625 44.78125 43.15625 44.394531 C 43.15625 44.003906 42.835938 43.6875 42.445312 43.6875"/><path style="stroke:none;fill-rule:nonzero;fill:#fff;fill-opacity:1" d="M 46.488281 43.6875 C 46.097656 43.6875 45.777344 44.003906 45.777344 44.394531 C 45.777344 44.78125 46.097656 45.101562 46.488281 45.101562 C 46.878906 45.101562 47.199219 44.78125 47.199219 44.394531 C 47.199219 44.003906 46.878906 43.6875 46.488281 43.6875"/><path style="stroke:none;fill-rule:nonzero;fill:#fff;fill-opacity:1" d="M 50.53125 43.6875 C 50.140625 43.6875 49.820312 44.003906 49.820312 44.394531 C 49.820312 44.78125 50.140625 45.101562 50.53125 45.101562 C 50.925781 45.101562 51.242188 44.78125 51.242188 44.394531 C 51.242188 44.003906 50.925781 43.6875 50.53125 43.6875"/><path style="stroke:none;fill-rule:nonzero;fill:#fff;fill-opacity:1" d="M 54.574219 43.6875 C 54.183594 43.6875 53.863281 44.003906 53.863281 44.394531 C 53.863281 44.78125 54.183594 45.101562 54.574219 45.101562 C 54.96875 45.101562 55.285156 44.78125 55.285156 44.394531 C 55.285156 44.003906 54.96875 43.6875 54.574219 43.6875"/><path style="stroke:none;fill-rule:nonzero;fill:#fff;fill-opacity:1" d="M 58.617188 43.6875 C 58.226562 43.6875 57.910156 44.003906 57.910156 44.394531 C 57.910156 44.78125 58.226562 45.101562 58.617188 45.101562 C 59.011719 45.101562 59.328125 44.78125 59.328125 44.394531 C 59.328125 44.003906 59.011719 43.6875 58.617188 43.6875"/><path style="stroke:none;fill-rule:nonzero;fill:#fff;fill-opacity:1" d="M 62.660156 43.6875 C 62.269531 43.6875 61.953125 44.003906 61.953125 44.394531 C 61.953125 44.78125 62.269531 45.101562 62.660156 45.101562 C 63.054688 45.101562 63.371094 44.78125 63.371094 44.394531 C 63.371094 44.003906 63.054688 43.6875 62.660156 43.6875"/><g clip-path="url(#clip30)" clip-rule="nonzero"><path style="stroke:none;fill-rule:nonzero;fill:#fff;fill-opacity:1" d="M 66.703125 43.6875 C 66.3125 43.6875 65.996094 44.003906 65.996094 44.394531 C 65.996094 44.78125 66.3125 45.101562 66.703125 45.101562 C 67.097656 45.101562 67.414062 44.78125 67.414062 44.394531 C 67.414062 44.003906 67.097656 43.6875 66.703125 43.6875"/></g><path style="stroke:none;fill-rule:nonzero;fill:#fff;fill-opacity:1" d="M 42.445312 47.679688 C 42.054688 47.679688 41.734375 47.996094 41.734375 48.386719 C 41.734375 48.777344 42.054688 49.09375 42.445312 49.09375 C 42.835938 49.09375 43.15625 48.777344 43.15625 48.386719 C 43.15625 47.996094 42.835938 47.679688 42.445312 47.679688"/><path style="stroke:none;fill-rule:nonzero;fill:#fff;fill-opacity:1" d="M 46.488281 47.679688 C 46.097656 47.679688 45.777344 47.996094 45.777344 48.386719 C 45.777344 48.777344 46.097656 49.09375 46.488281 49.09375 C 46.878906 49.09375 47.199219 48.777344 47.199219 48.386719 C 47.199219 47.996094 46.878906 47.679688 46.488281 47.679688"/><path style="stroke:none;fill-rule:nonzero;fill:#fff;fill-opacity:1" d="M 50.53125 47.679688 C 50.140625 47.679688 49.820312 47.996094 49.820312 48.386719 C 49.820312 48.777344 50.140625 49.09375 50.53125 49.09375 C 50.925781 49.09375 51.242188 48.777344 51.242188 48.386719 C 51.242188 47.996094 50.925781 47.679688 50.53125 47.679688"/><path style="stroke:none;fill-rule:nonzero;fill:#fff;fill-opacity:1" d="M 54.574219 47.679688 C 54.183594 47.679688 53.863281 47.996094 53.863281 48.386719 C 53.863281 48.777344 54.183594 49.09375 54.574219 49.09375 C 54.96875 49.09375 55.285156 48.777344 55.285156 48.386719 C 55.285156 47.996094 54.96875 47.679688 54.574219 47.679688"/><path style="stroke:none;fill-rule:nonzero;fill:#fff;fill-opacity:1" d="M 58.617188 47.679688 C 58.226562 47.679688 57.910156 47.996094 57.910156 48.386719 C 57.910156 48.777344 58.226562 49.09375 58.617188 49.09375 C 59.011719 49.09375 59.328125 48.777344 59.328125 48.386719 C 59.328125 47.996094 59.011719 47.679688 58.617188 47.679688"/><path style="stroke:none;fill-rule:nonzero;fill:#fff;fill-opacity:1" d="M 62.660156 47.679688 C 62.269531 47.679688 61.953125 47.996094 61.953125 48.386719 C 61.953125 48.777344 62.269531 49.09375 62.660156 49.09375 C 63.054688 49.09375 63.371094 48.777344 63.371094 48.386719 C 63.371094 47.996094 63.054688 47.679688 62.660156 47.679688"/><g clip-path="url(#clip31)" clip-rule="nonzero"><path style="stroke:none;fill-rule:nonzero;fill:#fff;fill-opacity:1" d="M 66.703125 47.679688 C 66.3125 47.679688 65.996094 47.996094 65.996094 48.386719 C 65.996094 48.777344 66.3125 49.09375 66.703125 49.09375 C 67.097656 49.09375 67.414062 48.777344 67.414062 48.386719 C 67.414062 47.996094 67.097656 47.679688 66.703125 47.679688"/></g><g clip-path="url(#clip32)" clip-rule="nonzero"><path style="stroke:none;fill-rule:nonzero;fill:#fff;fill-opacity:1" d="M 42.445312 51.726562 C 42.054688 51.726562 41.734375 52.042969 41.734375 52.433594 C 41.734375 52.820312 42.054688 53.136719 42.445312 53.136719 C 42.835938 53.136719 43.15625 52.820312 43.15625 52.433594 C 43.15625 52.042969 42.835938 51.726562 42.445312 51.726562"/></g><g clip-path="url(#clip33)" clip-rule="nonzero"><path style="stroke:none;fill-rule:nonzero;fill:#fff;fill-opacity:1" d="M 46.488281 51.726562 C 46.097656 51.726562 45.777344 52.042969 45.777344 52.433594 C 45.777344 52.820312 46.097656 53.136719 46.488281 53.136719 C 46.878906 53.136719 47.199219 52.820312 47.199219 52.433594 C 47.199219 52.042969 46.878906 51.726562 46.488281 51.726562"/></g><g clip-path="url(#clip34)" clip-rule="nonzero"><path style="stroke:none;fill-rule:nonzero;fill:#fff;fill-opacity:1" d="M 50.53125 51.726562 C 50.140625 51.726562 49.820312 52.042969 49.820312 52.433594 C 49.820312 52.820312 50.140625 53.136719 50.53125 53.136719 C 50.925781 53.136719 51.242188 52.820312 51.242188 52.433594 C 51.242188 52.042969 50.925781 51.726562 50.53125 51.726562"/></g><g clip-path="url(#clip35)" clip-rule="nonzero"><path style="stroke:none;fill-rule:nonzero;fill:#fff;fill-opacity:1" d="M 54.574219 51.726562 C 54.183594 51.726562 53.863281 52.042969 53.863281 52.433594 C 53.863281 52.820312 54.183594 53.136719 54.574219 53.136719 C 54.96875 53.136719 55.285156 52.820312 55.285156 52.433594 C 55.285156 52.042969 54.96875 51.726562 54.574219 51.726562"/></g><g clip-path="url(#clip36)" clip-rule="nonzero"><path style="stroke:none;fill-rule:nonzero;fill:#fff;fill-opacity:1" d="M 58.617188 51.726562 C 58.226562 51.726562 57.910156 52.042969 57.910156 52.433594 C 57.910156 52.820312 58.226562 53.136719 58.617188 53.136719 C 59.011719 53.136719 59.328125 52.820312 59.328125 52.433594 C 59.328125 52.042969 59.011719 51.726562 58.617188 51.726562"/></g><g clip-path="url(#clip37)" clip-rule="nonzero"><path style="stroke:none;fill-rule:nonzero;fill:#fff;fill-opacity:1" d="M 62.660156 51.726562 C 62.269531 51.726562 61.953125 52.042969 61.953125 52.433594 C 61.953125 52.820312 62.269531 53.136719 62.660156 53.136719 C 63.054688 53.136719 63.371094 52.820312 63.371094 52.433594 C 63.371094 52.042969 63.054688 51.726562 62.660156 51.726562"/></g><g clip-path="url(#clip38)" clip-rule="nonzero"><path style="stroke:none;fill-rule:nonzero;fill:#fff;fill-opacity:1" d="M 66.703125 51.726562 C 66.3125 51.726562 65.996094 52.042969 65.996094 52.433594 C 65.996094 52.820312 66.3125 53.136719 66.703125 53.136719 C 67.097656 53.136719 67.414062 52.820312 67.414062 52.433594 C 67.414062 52.042969 67.097656 51.726562 66.703125 51.726562"/></g></g></svg>
