<svg xmlns="http://www.w3.org/2000/svg" xmlns:xlink="http://www.w3.org/1999/xlink" width="108" height="108" version="1.2" viewBox="0 0 81 81"><defs><clipPath id="clip1"><path d="M 48 23 L 80.378906 23 L 80.378906 58 L 48 58 Z M 48 23"/></clipPath><clipPath id="clip2"><path d="M 69 10.339844 L 72 10.339844 L 72 13 L 69 13 Z M 69 10.339844"/></clipPath></defs><g id="surface1"><path style="stroke:none;fill-rule:nonzero;fill:#ff5b00;fill-opacity:1" d="M 78.25 38.777344 L 63.96875 24.742188 C 63.582031 24.363281 63.058594 24.148438 62.511719 24.148438 L 50.832031 24.148438 C 50 24.148438 49.246094 24.644531 48.925781 25.402344 C 48.605469 26.160156 48.785156 27.03125 49.375 27.613281 L 62.191406 40.210938 L 49.375 52.808594 C 48.785156 53.390625 48.605469 54.261719 48.925781 55.019531 C 49.246094 55.777344 50 56.273438 50.832031 56.273438 L 62.511719 56.273438 C 63.058594 56.273438 63.582031 56.058594 63.96875 55.679688 L 78.25 41.644531 C 78.636719 41.265625 78.851562 40.75 78.851562 40.210938 C 78.851562 39.671875 78.632812 39.15625 78.25 38.777344 Z M 78.25 38.777344"/><path style="stroke:none;fill-rule:nonzero;fill:#ff9700;fill-opacity:1" d="M 67.523438 41.644531 C 67.910156 41.265625 68.128906 40.75 68.128906 40.210938 C 68.128906 39.671875 67.910156 39.15625 67.523438 38.777344 L 53.246094 24.742188 C 52.859375 24.363281 52.335938 24.148438 51.785156 24.148438 L 50.832031 24.148438 C 50 24.148438 49.246094 24.644531 48.925781 25.402344 C 48.605469 26.160156 48.785156 27.03125 49.375 27.613281 L 62.191406 40.210938 L 49.375 52.808594 C 48.785156 53.390625 48.605469 54.261719 48.925781 55.019531 C 49.246094 55.777344 50 56.273438 50.832031 56.273438 L 51.785156 56.273438 C 52.335938 56.273438 52.859375 56.058594 53.246094 55.679688 Z M 67.523438 41.644531"/><path style="stroke:none;fill-rule:nonzero;fill:#11aaa6;fill-opacity:1" d="M 31.894531 25.402344 C 31.574219 24.644531 30.820312 24.148438 29.988281 24.148438 L 18.308594 24.148438 C 17.761719 24.148438 17.238281 24.363281 16.851562 24.742188 L 2.570312 38.777344 C 2.183594 39.15625 1.96875 39.671875 1.96875 40.210938 C 1.96875 40.75 2.183594 41.265625 2.570312 41.644531 L 16.851562 55.679688 C 17.238281 56.058594 17.761719 56.273438 18.308594 56.273438 L 29.988281 56.273438 C 30.820312 56.273438 31.574219 55.777344 31.894531 55.019531 C 32.214844 54.261719 32.035156 53.390625 31.449219 52.808594 L 18.628906 40.210938 L 31.449219 27.613281 C 32.035156 27.03125 32.214844 26.160156 31.894531 25.402344 Z M 31.894531 25.402344"/><path style="stroke:none;fill-rule:nonzero;fill:#20d397;fill-opacity:1" d="M 31.894531 55.019531 C 32.214844 54.261719 32.035156 53.390625 31.449219 52.808594 L 18.628906 40.210938 L 31.449219 27.613281 C 32.039062 27.03125 32.214844 26.160156 31.894531 25.402344 C 31.574219 24.644531 30.820312 24.148438 29.988281 24.148438 L 29.035156 24.148438 C 28.488281 24.148438 27.960938 24.363281 27.574219 24.742188 L 13.296875 38.777344 C 12.910156 39.15625 12.691406 39.671875 12.691406 40.210938 C 12.691406 40.75 12.910156 41.265625 13.296875 41.644531 L 27.574219 55.679688 C 27.960938 56.058594 28.488281 56.273438 29.035156 56.273438 L 29.988281 56.273438 C 30.820312 56.273438 31.574219 55.777344 31.894531 55.019531 Z M 31.894531 55.019531"/><g clip-path="url(#clip1)" clip-rule="nonzero"><path style="fill:none;stroke-width:3;stroke-linecap:round;stroke-linejoin:round;stroke:#33363a;stroke-opacity:1;stroke-miterlimit:10" d="M 129.877971 65.119083 L 106.579051 41.815436 C 105.947972 41.186309 105.093784 40.829588 104.194975 40.829588 L 85.141494 40.829588 C 83.777344 40.829588 82.553433 41.65329 82.030722 42.911544 C 81.50801 44.169799 81.794864 45.616142 82.757418 46.582534 L 103.678638 67.499389 L 82.757418 88.416244 C 81.794864 89.382635 81.50801 90.828979 82.030722 92.087233 C 82.553433 93.345487 83.777344 94.16919 85.141494 94.16919 L 104.194975 94.16919 C 105.093784 94.16919 105.947972 93.812468 106.579051 93.183341 L 129.877971 69.879694 C 130.50905 69.250567 130.866024 68.394435 130.866024 67.499389 C 130.866024 66.604342 130.50905 65.74821 129.877971 65.119083 Z M 129.877971 65.119083" transform="matrix(0.61279,0,0,0.602273,-0.568381,-0.442119)"/></g><path style="fill:none;stroke-width:3;stroke-linecap:round;stroke-linejoin:round;stroke:#33363a;stroke-opacity:1;stroke-miterlimit:10" d="M 108.669898 62.498801 L 87.748678 83.422142" transform="matrix(0.61279,0,0,0.602273,-0.568381,-0.442119)"/><path style="fill:none;stroke-width:3;stroke-linecap:round;stroke-linejoin:round;stroke:#33363a;stroke-opacity:1;stroke-miterlimit:10" d="M 52.975597 42.911544 C 52.452886 41.65329 51.222601 40.829588 49.864825 40.829588 L 30.804969 40.829588 C 29.912535 40.829588 29.058347 41.186309 28.427268 41.815436 L 5.121973 65.119083 C 4.490895 65.74821 4.140295 66.604342 4.140295 67.499389 C 4.140295 68.394435 4.490895 69.250567 5.121973 69.879694 L 28.427268 93.183341 C 29.058347 93.812468 29.912535 94.16919 30.804969 94.16919 L 49.864825 94.16919 C 51.222601 94.16919 52.452886 93.345487 52.975597 92.087233 C 53.498309 90.828979 53.205081 89.382635 52.248901 88.416244 L 31.327681 67.499389 L 52.248901 46.582534 C 53.205081 45.616142 53.498309 44.169799 52.975597 42.911544 Z M 52.975597 42.911544" transform="matrix(0.61279,0,0,0.602273,-0.568381,-0.442119)"/><path style="fill:none;stroke-width:3;stroke-linecap:round;stroke-linejoin:round;stroke:#33363a;stroke-opacity:1;stroke-miterlimit:10" d="M 26.330047 72.499976 L 47.244892 51.583121" transform="matrix(0.61279,0,0,0.602273,-0.568381,-0.442119)"/><path style="fill:none;stroke-width:3;stroke-linecap:round;stroke-linejoin:round;stroke:#33363a;stroke-opacity:1;stroke-miterlimit:10" d="M 57.04255 77.961059 L 77.957395 57.044204" transform="matrix(0.61279,0,0,0.602273,-0.568381,-0.442119)"/><path style="fill:none;stroke-width:3;stroke-linecap:round;stroke-linejoin:round;stroke:#33363a;stroke-opacity:1;stroke-miterlimit:10" d="M 101.402929 33.597869 L 103.787005 31.211077" transform="matrix(0.61279,0,0,0.602273,-0.568381,-0.442119)"/><path style="fill:none;stroke-width:3;stroke-linecap:round;stroke-linejoin:round;stroke:#33363a;stroke-opacity:1;stroke-miterlimit:10" d="M 108.191808 26.813673 L 108.440414 26.560725" transform="matrix(0.61279,0,0,0.602273,-0.568381,-0.442119)"/><path style="fill:none;stroke-width:3;stroke-linecap:round;stroke-linejoin:round;stroke:#33363a;stroke-opacity:1;stroke-miterlimit:10" d="M 111.678677 23.317802 L 111.927284 23.07134" transform="matrix(0.61279,0,0,0.602273,-0.568381,-0.442119)"/><g clip-path="url(#clip2)" clip-rule="nonzero"><path style="fill:none;stroke-width:3;stroke-linecap:round;stroke-linejoin:round;stroke:#33363a;stroke-opacity:1;stroke-miterlimit:10" d="M 115.171922 19.834902 L 115.420529 19.581954" transform="matrix(0.61279,0,0,0.602273,-0.568381,-0.442119)"/></g><path style="fill:none;stroke-width:3;stroke-linecap:round;stroke-linejoin:round;stroke:#33363a;stroke-opacity:1;stroke-miterlimit:10" d="M 33.597015 101.400909 L 31.21294 103.7877" transform="matrix(0.61279,0,0,0.602273,-0.568381,-0.442119)"/><path style="fill:none;stroke-width:3;stroke-linecap:round;stroke-linejoin:round;stroke:#33363a;stroke-opacity:1;stroke-miterlimit:10" d="M 26.808137 108.19159 L 26.55953 108.438052" transform="matrix(0.61279,0,0,0.602273,-0.568381,-0.442119)"/><path style="fill:none;stroke-width:3;stroke-linecap:round;stroke-linejoin:round;stroke:#33363a;stroke-opacity:1;stroke-miterlimit:10" d="M 23.321267 111.680975 L 23.07266 111.927437" transform="matrix(0.61279,0,0,0.602273,-0.568381,-0.442119)"/><path style="fill:none;stroke-width:3;stroke-linecap:round;stroke-linejoin:round;stroke:#33363a;stroke-opacity:1;stroke-miterlimit:10" d="M 19.828023 115.170361 L 19.58579 115.416823" transform="matrix(0.61279,0,0,0.602273,-0.568381,-0.442119)"/></g></svg>
