<svg xmlns="http://www.w3.org/2000/svg" xmlns:xlink="http://www.w3.org/1999/xlink" width="270" height="270" version="1.2" viewBox="0 0 202.5 202.5"><defs><clipPath id="clip1"><path d="M 33 162 L 162 162 L 162 202 L 33 202 Z M 33 162"/></clipPath></defs><g id="surface1"><g clip-path="url(#clip1)" clip-rule="nonzero"><path style="stroke:none;fill-rule:nonzero;fill:#008bcf;fill-opacity:1" d="M 145.851562 174.652344 L 144.035156 173.601562 C 134.71875 168.183594 124.679688 164.585938 114.355469 162.726562 C 114.03125 171.578125 106.773438 178.613281 97.898438 178.613281 C 88.988281 178.613281 81.769531 171.539062 81.445312 162.726562 C 71.164062 164.585938 61.121094 168.222656 51.765625 173.601562 L 49.949219 174.652344 C 40.027344 180.390625 33.898438 191.019531 33.898438 202.5 L 161.902344 202.5 C 161.902344 191.019531 155.769531 180.390625 145.851562 174.652344 Z M 145.851562 174.652344"/></g><path style="stroke:none;fill-rule:nonzero;fill:#f8c997;fill-opacity:1" d="M 136.375 49.511719 L 59.386719 49.511719 C 52.207031 49.511719 46.359375 55.375 46.359375 62.570312 L 46.359375 104.886719 C 46.359375 133.300781 69.550781 156.503906 97.859375 156.503906 C 126.210938 156.503906 149.359375 133.261719 149.359375 104.886719 L 149.359375 62.570312 C 149.398438 55.414062 143.550781 49.511719 136.375 49.511719 Z M 136.375 49.511719"/><path style="stroke:none;fill-rule:nonzero;fill:#1a1a1a;fill-opacity:1" d="M 78.382812 93.730469 C 78.382812 94.472656 78.339844 95.207031 78.261719 95.933594 C 78.179688 96.660156 78.058594 97.363281 77.902344 98.046875 C 77.746094 98.730469 77.550781 99.382812 77.320312 99.996094 C 77.089844 100.613281 76.832031 101.183594 76.539062 101.707031 C 76.246094 102.230469 75.929688 102.695312 75.585938 103.109375 C 75.242188 103.519531 74.878906 103.867188 74.496094 104.152344 C 74.117188 104.433594 73.722656 104.648438 73.316406 104.792969 C 72.914062 104.9375 72.503906 105.007812 72.089844 105.007812 C 71.675781 105.007812 71.269531 104.9375 70.863281 104.792969 C 70.457031 104.648438 70.0625 104.433594 69.683594 104.152344 C 69.300781 103.867188 68.9375 103.519531 68.59375 103.109375 C 68.25 102.695312 67.933594 102.230469 67.640625 101.707031 C 67.347656 101.183594 67.089844 100.613281 66.859375 99.996094 C 66.628906 99.382812 66.4375 98.730469 66.277344 98.046875 C 66.121094 97.363281 66 96.660156 65.917969 95.933594 C 65.839844 95.207031 65.796875 94.472656 65.796875 93.730469 C 65.796875 92.992188 65.839844 92.257812 65.917969 91.53125 C 66 90.804688 66.121094 90.101562 66.277344 89.417969 C 66.4375 88.734375 66.628906 88.082031 66.859375 87.46875 C 67.089844 86.851562 67.347656 86.28125 67.640625 85.757812 C 67.933594 85.234375 68.25 84.765625 68.59375 84.355469 C 68.9375 83.945312 69.300781 83.597656 69.683594 83.3125 C 70.0625 83.03125 70.457031 82.816406 70.863281 82.671875 C 71.269531 82.527344 71.675781 82.457031 72.089844 82.457031 C 72.503906 82.457031 72.914062 82.527344 73.316406 82.671875 C 73.722656 82.816406 74.117188 83.03125 74.496094 83.3125 C 74.878906 83.597656 75.242188 83.945312 75.585938 84.355469 C 75.929688 84.765625 76.246094 85.234375 76.539062 85.757812 C 76.832031 86.28125 77.089844 86.851562 77.320312 87.46875 C 77.550781 88.082031 77.746094 88.734375 77.902344 89.417969 C 78.058594 90.101562 78.179688 90.804688 78.261719 91.53125 C 78.339844 92.257812 78.382812 92.992188 78.382812 93.730469 Z M 78.382812 93.730469"/><path style="stroke:none;fill-rule:nonzero;fill:#1a1a1a;fill-opacity:1" d="M 130.042969 93.730469 C 130.042969 94.472656 130 95.207031 129.921875 95.933594 C 129.839844 96.660156 129.722656 97.363281 129.5625 98.046875 C 129.40625 98.730469 129.210938 99.382812 128.980469 99.996094 C 128.75 100.613281 128.492188 101.183594 128.199219 101.707031 C 127.90625 102.230469 127.589844 102.695312 127.246094 103.109375 C 126.902344 103.519531 126.539062 103.867188 126.15625 104.152344 C 125.777344 104.433594 125.382812 104.648438 124.976562 104.792969 C 124.574219 104.9375 124.164062 105.007812 123.75 105.007812 C 123.335938 105.007812 122.929688 104.9375 122.523438 104.792969 C 122.117188 104.648438 121.722656 104.433594 121.34375 104.152344 C 120.960938 103.867188 120.597656 103.519531 120.253906 103.109375 C 119.910156 102.695312 119.59375 102.230469 119.300781 101.707031 C 119.011719 101.183594 118.75 100.613281 118.519531 99.996094 C 118.289062 99.382812 118.097656 98.730469 117.9375 98.046875 C 117.78125 97.363281 117.660156 96.660156 117.582031 95.933594 C 117.5 95.207031 117.460938 94.472656 117.460938 93.730469 C 117.460938 92.992188 117.5 92.257812 117.582031 91.53125 C 117.660156 90.804688 117.78125 90.101562 117.9375 89.417969 C 118.097656 88.734375 118.289062 88.082031 118.519531 87.46875 C 118.75 86.851562 119.011719 86.28125 119.300781 85.757812 C 119.59375 85.234375 119.910156 84.765625 120.253906 84.355469 C 120.597656 83.945312 120.960938 83.597656 121.34375 83.3125 C 121.722656 83.03125 122.117188 82.816406 122.523438 82.671875 C 122.929688 82.527344 123.335938 82.457031 123.75 82.457031 C 124.164062 82.457031 124.574219 82.527344 124.976562 82.671875 C 125.382812 82.816406 125.777344 83.03125 126.15625 83.3125 C 126.539062 83.597656 126.902344 83.945312 127.246094 84.355469 C 127.589844 84.765625 127.90625 85.234375 128.199219 85.757812 C 128.492188 86.28125 128.75 86.851562 128.980469 87.46875 C 129.210938 88.082031 129.40625 88.734375 129.5625 89.417969 C 129.722656 90.101562 129.839844 90.804688 129.921875 91.53125 C 130 92.257812 130.042969 92.992188 130.042969 93.730469 Z M 130.042969 93.730469"/><path style="stroke:none;fill-rule:nonzero;fill:#ff4343;fill-opacity:1" d="M 131.210938 113.292969 C 131.210938 113.515625 131.152344 113.734375 131.039062 113.949219 C 130.925781 114.164062 130.753906 114.375 130.53125 114.578125 C 130.304688 114.78125 130.027344 114.976562 129.703125 115.160156 C 129.375 115.34375 129.003906 115.511719 128.589844 115.667969 C 128.171875 115.824219 127.722656 115.960938 127.230469 116.085938 C 126.742188 116.207031 126.226562 116.308594 125.683594 116.394531 C 125.140625 116.480469 124.582031 116.542969 124.003906 116.585938 C 123.429688 116.628906 122.847656 116.648438 122.257812 116.648438 C 121.671875 116.648438 121.089844 116.628906 120.511719 116.585938 C 119.933594 116.542969 119.375 116.480469 118.832031 116.394531 C 118.289062 116.308594 117.773438 116.207031 117.285156 116.085938 C 116.796875 115.960938 116.34375 115.824219 115.925781 115.667969 C 115.511719 115.511719 115.140625 115.34375 114.8125 115.160156 C 114.488281 114.976562 114.210938 114.78125 113.988281 114.578125 C 113.761719 114.375 113.59375 114.164062 113.476562 113.949219 C 113.363281 113.734375 113.304688 113.515625 113.304688 113.292969 C 113.304688 113.074219 113.363281 112.855469 113.476562 112.640625 C 113.59375 112.425781 113.761719 112.214844 113.988281 112.011719 C 114.210938 111.808594 114.488281 111.613281 114.8125 111.429688 C 115.140625 111.246094 115.511719 111.078125 115.925781 110.921875 C 116.34375 110.765625 116.796875 110.628906 117.285156 110.503906 C 117.773438 110.382812 118.289062 110.28125 118.832031 110.195312 C 119.375 110.109375 119.933594 110.046875 120.511719 110.003906 C 121.089844 109.960938 121.671875 109.941406 122.257812 109.941406 C 122.847656 109.941406 123.429688 109.960938 124.003906 110.003906 C 124.582031 110.046875 125.140625 110.109375 125.683594 110.195312 C 126.226562 110.28125 126.742188 110.382812 127.230469 110.503906 C 127.722656 110.628906 128.171875 110.765625 128.589844 110.921875 C 129.003906 111.078125 129.375 111.246094 129.703125 111.429688 C 130.027344 111.613281 130.304688 111.808594 130.53125 112.011719 C 130.753906 112.214844 130.925781 112.425781 131.039062 112.640625 C 131.152344 112.855469 131.210938 113.074219 131.210938 113.292969 Z M 131.210938 113.292969"/><path style="stroke:none;fill-rule:nonzero;fill:#ff4343;fill-opacity:1" d="M 83.421875 113.292969 C 83.421875 113.515625 83.363281 113.734375 83.25 113.949219 C 83.136719 114.164062 82.964844 114.375 82.742188 114.578125 C 82.515625 114.78125 82.238281 114.976562 81.914062 115.160156 C 81.585938 115.34375 81.214844 115.511719 80.800781 115.667969 C 80.382812 115.824219 79.933594 115.960938 79.441406 116.085938 C 78.953125 116.207031 78.4375 116.308594 77.894531 116.394531 C 77.351562 116.480469 76.792969 116.542969 76.214844 116.585938 C 75.640625 116.628906 75.058594 116.648438 74.46875 116.648438 C 73.882812 116.648438 73.300781 116.628906 72.722656 116.585938 C 72.144531 116.542969 71.585938 116.480469 71.042969 116.394531 C 70.5 116.308594 69.984375 116.207031 69.496094 116.085938 C 69.007812 115.960938 68.554688 115.824219 68.140625 115.667969 C 67.722656 115.511719 67.351562 115.34375 67.023438 115.160156 C 66.699219 114.976562 66.421875 114.78125 66.199219 114.578125 C 65.972656 114.375 65.804688 114.164062 65.6875 113.949219 C 65.574219 113.734375 65.515625 113.515625 65.515625 113.292969 C 65.515625 113.074219 65.574219 112.855469 65.6875 112.640625 C 65.804688 112.425781 65.972656 112.214844 66.199219 112.011719 C 66.421875 111.808594 66.699219 111.613281 67.023438 111.429688 C 67.351562 111.246094 67.722656 111.078125 68.140625 110.921875 C 68.554688 110.765625 69.007812 110.628906 69.496094 110.503906 C 69.984375 110.382812 70.5 110.28125 71.042969 110.195312 C 71.585938 110.109375 72.144531 110.046875 72.722656 110.003906 C 73.300781 109.960938 73.882812 109.941406 74.46875 109.941406 C 75.058594 109.941406 75.640625 109.960938 76.214844 110.003906 C 76.792969 110.046875 77.351562 110.109375 77.894531 110.195312 C 78.4375 110.28125 78.953125 110.382812 79.441406 110.503906 C 79.933594 110.628906 80.382812 110.765625 80.800781 110.921875 C 81.214844 111.078125 81.585938 111.246094 81.914062 111.429688 C 82.238281 111.613281 82.515625 111.808594 82.742188 112.011719 C 82.964844 112.214844 83.136719 112.425781 83.25 112.640625 C 83.363281 112.855469 83.421875 113.074219 83.421875 113.292969 Z M 83.421875 113.292969"/><path style="stroke:none;fill-rule:nonzero;fill:#231f20;fill-opacity:1" d="M 149.359375 106.789062 C 143.027344 106.789062 136.976562 109.414062 132.785156 114.144531 C 130.605469 116.570312 127.863281 118.75 124.636719 120.652344 L 124.4375 120.570312 C 115.96875 117.132812 107.054688 115.398438 97.941406 115.398438 C 88.828125 115.398438 79.875 117.132812 71.445312 120.570312 L 71.242188 120.652344 C 68.015625 118.792969 65.234375 116.570312 63.097656 114.144531 C 58.820312 109.457031 52.734375 106.789062 46.441406 106.789062 C 47.609375 134.191406 70.316406 156.21875 97.898438 156.21875 C 125.484375 156.21875 148.1875 134.191406 149.359375 106.789062 Z M 149.359375 106.789062"/><path style="stroke:none;fill-rule:nonzero;fill:#fff;fill-opacity:1" d="M 81.246094 123.359375 C 81.246094 132.050781 88.542969 139.648438 97.496094 139.648438 C 106.449219 139.648438 113.75 132.050781 113.75 123.359375 Z M 81.246094 123.359375"/><path style="stroke:none;fill-rule:nonzero;fill:#f5b67e;fill-opacity:1" d="M 97.898438 156.503906 C 92.132812 156.503906 86.609375 155.53125 81.40625 153.753906 L 81.40625 162.082031 C 81.40625 171.214844 88.785156 178.613281 97.898438 178.613281 C 107.015625 178.613281 114.394531 171.214844 114.394531 162.082031 L 114.394531 153.753906 C 109.191406 155.53125 103.667969 156.503906 97.898438 156.503906 Z M 97.898438 156.503906"/><path style="stroke:none;fill-rule:nonzero;fill:#f6c085;fill-opacity:1" d="M 149.398438 84.476562 L 149.398438 104.886719 C 149.398438 105.980469 149.359375 107.109375 149.277344 108.203125 C 153.753906 106.101562 156.859375 101.574219 156.859375 96.320312 C 156.859375 91.105469 153.796875 86.578125 149.398438 84.476562 Z M 149.398438 84.476562"/><path style="stroke:none;fill-rule:nonzero;fill:#f6c085;fill-opacity:1" d="M 46.359375 83.628906 C 40.753906 85.121094 36.601562 90.257812 36.601562 96.320312 C 36.601562 102.421875 40.835938 107.597656 46.523438 109.050781 C 46.402344 107.675781 46.359375 106.300781 46.359375 104.886719 Z M 46.359375 83.628906"/><path style="stroke:none;fill-rule:nonzero;fill:#231f20;fill-opacity:1" d="M 117.015625 12.125 L 79.710938 12.125 C 57.933594 12.125 40.148438 29.992188 40.148438 51.777344 L 40.148438 78.332031 C 40.148438 86.171875 42.449219 93.488281 46.402344 99.632812 L 46.402344 62.570312 C 46.402344 55.375 52.25 49.511719 59.425781 49.511719 L 136.375 49.511719 C 143.550781 49.511719 149.398438 55.375 149.398438 62.570312 L 149.398438 99.472656 C 153.914062 93.042969 156.578125 86.78125 156.578125 78.332031 L 156.578125 51.777344 C 156.578125 29.949219 138.753906 12.125 117.015625 12.125 Z M 117.015625 12.125"/><path style="stroke:none;fill-rule:evenodd;fill:#231f20;fill-opacity:1" d="M 137.703125 11.035156 C 125.363281 2.789062 110.199219 0 95.722656 3.3125 C 71.96875 8.769531 35.59375 14.1875 22.929688 0.121094 C 22.929688 0.121094 23.535156 8.449219 26.921875 18.957031 C 25.390625 17.867188 24.097656 16.8125 23.089844 15.761719 C 23.089844 15.761719 20.269531 28.578125 40.753906 44.179688 C 43.617188 47.371094 46.886719 50.363281 50.714844 52.867188 C 53.015625 50.808594 56.039062 49.554688 59.347656 49.554688 L 136.375 49.554688 C 143.550781 49.554688 149.398438 55.414062 149.398438 62.609375 L 149.398438 82.132812 L 156.859375 59.253906 C 176.054688 3.71875 137.703125 11.035156 137.703125 11.035156 Z M 137.703125 11.035156"/></g></svg>
