<svg xmlns="http://www.w3.org/2000/svg" xmlns:xlink="http://www.w3.org/1999/xlink" width="130" height="130" version="1.2" viewBox="0 0 97.5 97.5"><defs><clipPath id="clip1"><path d="M 16 78 L 78 78 L 78 97.003906 L 16 97.003906 Z M 16 78"/></clipPath></defs><g id="surface1"><g clip-path="url(#clip1)" clip-rule="nonzero"><path style="stroke:none;fill-rule:nonzero;fill:#008bcf;fill-opacity:1" d="M 70.054688 84.089844 L 69.183594 83.585938 C 64.710938 80.976562 59.886719 79.246094 54.929688 78.351562 C 54.777344 82.613281 51.289062 86 47.03125 86 C 42.75 86 39.285156 82.59375 39.128906 78.351562 C 34.191406 79.246094 29.371094 80.996094 24.878906 83.585938 L 24.007812 84.089844 C 19.242188 86.855469 16.300781 91.972656 16.300781 97.5 L 77.761719 97.5 C 77.761719 91.972656 74.816406 86.855469 70.054688 84.089844 Z M 70.054688 84.089844"/></g><path style="stroke:none;fill-rule:nonzero;fill:#f8c997;fill-opacity:1" d="M 65.503906 23.839844 L 28.539062 23.839844 C 25.089844 23.839844 22.285156 26.660156 22.285156 30.125 L 22.285156 50.5 C 22.285156 64.183594 33.417969 75.351562 47.011719 75.351562 C 60.625 75.351562 71.738281 64.164062 71.738281 50.5 L 71.738281 30.125 C 71.757812 26.679688 68.949219 23.839844 65.503906 23.839844 Z M 65.503906 23.839844"/><path style="stroke:none;fill-rule:nonzero;fill:#1a1a1a;fill-opacity:1" d="M 37.660156 45.128906 C 37.660156 45.488281 37.640625 45.839844 37.601562 46.191406 C 37.5625 46.539062 37.503906 46.878906 37.429688 47.207031 C 37.351562 47.539062 37.257812 47.851562 37.148438 48.148438 C 37.039062 48.441406 36.914062 48.71875 36.773438 48.96875 C 36.632812 49.222656 36.480469 49.445312 36.316406 49.644531 C 36.152344 49.84375 35.976562 50.011719 35.792969 50.148438 C 35.609375 50.28125 35.421875 50.386719 35.226562 50.457031 C 35.03125 50.523438 34.835938 50.558594 34.636719 50.558594 C 34.4375 50.558594 34.242188 50.523438 34.046875 50.457031 C 33.855469 50.386719 33.664062 50.28125 33.480469 50.148438 C 33.296875 50.011719 33.125 49.84375 32.960938 49.644531 C 32.792969 49.445312 32.640625 49.222656 32.5 48.96875 C 32.359375 48.71875 32.234375 48.441406 32.125 48.148438 C 32.015625 47.851562 31.921875 47.539062 31.847656 47.207031 C 31.769531 46.878906 31.714844 46.539062 31.675781 46.191406 C 31.636719 45.839844 31.617188 45.488281 31.617188 45.128906 C 31.617188 44.773438 31.636719 44.421875 31.675781 44.070312 C 31.714844 43.722656 31.769531 43.382812 31.847656 43.050781 C 31.921875 42.722656 32.015625 42.410156 32.125 42.113281 C 32.234375 41.816406 32.359375 41.542969 32.5 41.289062 C 32.640625 41.039062 32.792969 40.8125 32.960938 40.617188 C 33.125 40.417969 33.296875 40.25 33.480469 40.113281 C 33.664062 39.976562 33.855469 39.875 34.046875 39.804688 C 34.242188 39.734375 34.4375 39.699219 34.636719 39.699219 C 34.835938 39.699219 35.03125 39.734375 35.226562 39.804688 C 35.421875 39.875 35.609375 39.976562 35.792969 40.113281 C 35.976562 40.25 36.152344 40.417969 36.316406 40.617188 C 36.480469 40.8125 36.632812 41.039062 36.773438 41.289062 C 36.914062 41.542969 37.039062 41.816406 37.148438 42.113281 C 37.257812 42.410156 37.351562 42.722656 37.429688 43.050781 C 37.503906 43.382812 37.5625 43.722656 37.601562 44.070312 C 37.640625 44.421875 37.660156 44.773438 37.660156 45.128906 Z M 37.660156 45.128906"/><path style="stroke:none;fill-rule:nonzero;fill:#1a1a1a;fill-opacity:1" d="M 62.464844 45.128906 C 62.464844 45.488281 62.445312 45.839844 62.40625 46.191406 C 62.367188 46.539062 62.308594 46.878906 62.234375 47.207031 C 62.15625 47.539062 62.066406 47.851562 61.953125 48.148438 C 61.84375 48.441406 61.71875 48.71875 61.578125 48.96875 C 61.4375 49.222656 61.285156 49.445312 61.121094 49.644531 C 60.957031 49.84375 60.78125 50.011719 60.597656 50.148438 C 60.414062 50.28125 60.226562 50.386719 60.03125 50.457031 C 59.835938 50.523438 59.640625 50.558594 59.441406 50.558594 C 59.246094 50.558594 59.046875 50.523438 58.855469 50.457031 C 58.660156 50.386719 58.46875 50.28125 58.285156 50.148438 C 58.105469 50.011719 57.929688 49.84375 57.765625 49.644531 C 57.601562 49.445312 57.445312 49.222656 57.308594 48.96875 C 57.167969 48.71875 57.042969 48.441406 56.929688 48.148438 C 56.820312 47.851562 56.726562 47.539062 56.652344 47.207031 C 56.578125 46.878906 56.519531 46.539062 56.480469 46.191406 C 56.441406 45.839844 56.421875 45.488281 56.421875 45.128906 C 56.421875 44.773438 56.441406 44.421875 56.480469 44.070312 C 56.519531 43.722656 56.578125 43.382812 56.652344 43.050781 C 56.726562 42.722656 56.820312 42.410156 56.929688 42.113281 C 57.042969 41.816406 57.167969 41.542969 57.308594 41.289062 C 57.445312 41.039062 57.601562 40.8125 57.765625 40.617188 C 57.929688 40.417969 58.105469 40.25 58.285156 40.113281 C 58.46875 39.976562 58.660156 39.875 58.855469 39.804688 C 59.046875 39.734375 59.246094 39.699219 59.441406 39.699219 C 59.640625 39.699219 59.835938 39.734375 60.03125 39.804688 C 60.226562 39.875 60.414062 39.976562 60.597656 40.113281 C 60.78125 40.25 60.957031 40.417969 61.121094 40.617188 C 61.285156 40.8125 61.4375 41.039062 61.578125 41.289062 C 61.71875 41.542969 61.84375 41.816406 61.953125 42.113281 C 62.066406 42.410156 62.15625 42.722656 62.234375 43.050781 C 62.308594 43.382812 62.367188 43.722656 62.40625 44.070312 C 62.445312 44.421875 62.464844 44.773438 62.464844 45.128906 Z M 62.464844 45.128906"/><path style="stroke:none;fill-rule:nonzero;fill:#ff4343;fill-opacity:1" d="M 63.027344 54.550781 C 63.023438 54.761719 62.917969 54.96875 62.699219 55.167969 C 62.480469 55.367188 62.167969 55.539062 61.765625 55.691406 C 61.363281 55.84375 60.898438 55.960938 60.371094 56.042969 C 59.84375 56.125 59.296875 56.164062 58.726562 56.164062 C 58.15625 56.164062 57.609375 56.125 57.082031 56.042969 C 56.554688 55.960938 56.089844 55.84375 55.6875 55.691406 C 55.285156 55.539062 54.972656 55.367188 54.753906 55.167969 C 54.535156 54.96875 54.425781 54.761719 54.425781 54.550781 C 54.425781 54.335938 54.535156 54.128906 54.753906 53.929688 C 54.972656 53.734375 55.285156 53.558594 55.6875 53.40625 C 56.089844 53.253906 56.554688 53.140625 57.082031 53.058594 C 57.609375 52.976562 58.15625 52.933594 58.726562 52.933594 C 59.296875 52.933594 59.84375 52.976562 60.371094 53.058594 C 60.898438 53.140625 61.363281 53.253906 61.765625 53.40625 C 62.167969 53.558594 62.480469 53.734375 62.699219 53.929688 C 62.917969 54.128906 63.023438 54.335938 63.027344 54.550781 Z M 63.027344 54.550781"/><path style="stroke:none;fill-rule:nonzero;fill:#ff4343;fill-opacity:1" d="M 40.078125 54.550781 C 40.078125 54.761719 39.96875 54.96875 39.75 55.167969 C 39.535156 55.367188 39.222656 55.539062 38.820312 55.691406 C 38.417969 55.84375 37.953125 55.960938 37.425781 56.042969 C 36.898438 56.125 36.351562 56.164062 35.78125 56.164062 C 35.210938 56.164062 34.660156 56.125 34.136719 56.042969 C 33.609375 55.960938 33.144531 55.84375 32.742188 55.691406 C 32.335938 55.539062 32.027344 55.367188 31.808594 55.167969 C 31.589844 54.96875 31.480469 54.761719 31.480469 54.550781 C 31.480469 54.335938 31.589844 54.128906 31.808594 53.929688 C 32.027344 53.734375 32.335938 53.558594 32.742188 53.40625 C 33.144531 53.253906 33.609375 53.140625 34.136719 53.058594 C 34.660156 52.976562 35.210938 52.933594 35.78125 52.933594 C 36.351562 52.933594 36.898438 52.976562 37.425781 53.058594 C 37.953125 53.140625 38.417969 53.253906 38.820312 53.40625 C 39.222656 53.558594 39.535156 53.734375 39.75 53.929688 C 39.96875 54.128906 40.078125 54.335938 40.078125 54.550781 Z M 40.078125 54.550781"/><path style="stroke:none;fill-rule:nonzero;fill:#231f20;fill-opacity:1" d="M 71.738281 51.417969 C 68.699219 51.417969 65.792969 52.679688 63.78125 54.957031 C 62.734375 56.125 61.417969 57.175781 59.867188 58.089844 L 59.773438 58.050781 C 55.707031 56.398438 51.425781 55.5625 47.050781 55.5625 C 42.671875 55.5625 38.375 56.398438 34.328125 58.050781 L 34.230469 58.089844 C 32.683594 57.195312 31.34375 56.125 30.320312 54.957031 C 28.265625 52.699219 25.34375 51.417969 22.320312 51.417969 C 22.882812 64.609375 33.785156 75.21875 47.03125 75.21875 C 60.277344 75.21875 71.175781 64.609375 71.738281 51.417969 Z M 71.738281 51.417969"/><path style="stroke:none;fill-rule:nonzero;fill:#fff;fill-opacity:1" d="M 39.035156 59.394531 C 39.035156 63.578125 42.539062 67.238281 46.835938 67.238281 C 51.136719 67.238281 54.640625 63.578125 54.640625 59.394531 Z M 39.035156 59.394531"/><path style="stroke:none;fill-rule:nonzero;fill:#f5b67e;fill-opacity:1" d="M 47.03125 75.351562 C 44.261719 75.351562 41.609375 74.886719 39.109375 74.03125 L 39.109375 78.039062 C 39.109375 82.4375 42.65625 86 47.03125 86 C 51.40625 86 54.949219 82.4375 54.949219 78.039062 L 54.949219 74.03125 C 52.453125 74.886719 49.800781 75.351562 47.03125 75.351562 Z M 47.03125 75.351562"/><path style="stroke:none;fill-rule:nonzero;fill:#f6c085;fill-opacity:1" d="M 71.757812 40.671875 L 71.757812 50.5 C 71.757812 51.027344 71.738281 51.570312 71.699219 52.097656 C 73.851562 51.085938 75.339844 48.90625 75.339844 46.375 C 75.339844 43.867188 73.871094 41.6875 71.757812 40.671875 Z M 71.757812 40.671875"/><path style="stroke:none;fill-rule:nonzero;fill:#f6c085;fill-opacity:1" d="M 22.285156 40.265625 C 19.589844 40.984375 17.597656 43.457031 17.597656 46.375 C 17.597656 49.3125 19.628906 51.804688 22.359375 52.507812 C 22.300781 51.84375 22.285156 51.183594 22.285156 50.5 Z M 22.285156 40.265625"/><path style="stroke:none;fill-rule:nonzero;fill:#231f20;fill-opacity:1" d="M 56.210938 5.839844 L 38.296875 5.839844 C 27.839844 5.839844 19.300781 14.441406 19.300781 24.929688 L 19.300781 37.714844 C 19.300781 41.492188 20.40625 45.011719 22.300781 47.972656 L 22.300781 30.125 C 22.300781 26.660156 25.109375 23.839844 28.558594 23.839844 L 65.503906 23.839844 C 68.949219 23.839844 71.757812 26.660156 71.757812 30.125 L 71.757812 47.894531 C 73.925781 44.800781 75.207031 41.78125 75.207031 37.714844 L 75.207031 24.929688 C 75.207031 14.421875 66.648438 5.839844 56.210938 5.839844 Z M 56.210938 5.839844"/><path style="stroke:none;fill-rule:evenodd;fill:#231f20;fill-opacity:1" d="M 66.144531 5.3125 C 60.21875 1.34375 52.9375 0 45.984375 1.597656 C 34.578125 4.222656 17.113281 6.832031 11.03125 0.0585938 C 11.03125 0.0585938 11.324219 4.066406 12.949219 9.128906 C 12.214844 8.601562 11.59375 8.097656 11.109375 7.589844 C 11.109375 7.589844 9.753906 13.757812 19.589844 21.269531 C 20.964844 22.808594 22.535156 24.25 24.375 25.457031 C 25.476562 24.460938 26.929688 23.859375 28.519531 23.859375 L 65.503906 23.859375 C 68.949219 23.859375 71.757812 26.679688 71.757812 30.144531 L 71.757812 39.542969 L 75.339844 28.53125 C 84.558594 1.789062 66.144531 5.3125 66.144531 5.3125 Z M 66.144531 5.3125"/></g></svg>
