<svg xmlns="http://www.w3.org/2000/svg" xmlns:xlink="http://www.w3.org/1999/xlink" width="108" height="108" version="1.2" viewBox="0 0 81 81"><defs><clipPath id="clip1"><path d="M 0.949219 19.488281 L 80 19.488281 L 80 47.238281 L 0.949219 47.238281 Z M 0.949219 19.488281"/></clipPath><clipPath id="clip2"><path d="M 22 29 L 74 29 L 74 47.238281 L 22 47.238281 Z M 22 29"/></clipPath><clipPath id="clip3"><path d="M 32 43.132812 L 48.429688 43.132812 L 48.429688 62.589844 L 32 62.589844 Z M 32 43.132812"/></clipPath></defs><g id="surface1"><g clip-path="url(#clip1)" clip-rule="nonzero"><path style="stroke:none;fill-rule:nonzero;fill:#404137;fill-opacity:1" d="M 54.140625 18.640625 C 54.066406 18.640625 53.996094 18.660156 53.929688 18.699219 C 53.789062 18.78125 53.71875 18.910156 53.71875 19.074219 L 53.71875 30.164062 C 53.71875 30.273438 53.667969 30.371094 53.578125 30.425781 C 53.476562 30.484375 53.378906 30.484375 53.28125 30.425781 L 51.515625 29.382812 C 51.230469 29.214844 50.949219 29.214844 50.667969 29.382812 L 43.621094 33.554688 C 43.359375 33.710938 43.195312 34.011719 43.195312 34.324219 L 43.195312 42.675781 C 43.195312 43.007812 43.335938 43.261719 43.621094 43.425781 L 50.667969 47.601562 C 50.949219 47.769531 51.234375 47.769531 51.515625 47.601562 L 58.5625 43.425781 C 58.84375 43.261719 58.988281 43.007812 58.984375 42.675781 L 58.984375 21.859375 C 58.984375 21.542969 58.816406 21.246094 58.546875 21.089844 L 54.355469 18.683594 C 54.289062 18.644531 54.214844 18.640625 54.140625 18.640625 Z M 8.808594 29.0625 C 8.675781 29.070312 8.546875 29.09375 8.425781 29.164062 L 1.378906 33.339844 C 1.097656 33.507812 0.957031 33.757812 0.957031 34.09375 L 0.972656 45.296875 C 0.972656 45.453125 1.050781 45.597656 1.183594 45.675781 C 1.3125 45.753906 1.476562 45.753906 1.605469 45.675781 L 5.785156 43.210938 C 6.050781 43.050781 6.222656 42.769531 6.222656 42.457031 L 6.222656 37.222656 C 6.222656 36.910156 6.382812 36.625 6.648438 36.46875 L 8.429688 35.410156 C 8.558594 35.332031 8.699219 35.292969 8.851562 35.296875 C 9.003906 35.292969 9.144531 35.332031 9.273438 35.410156 L 11.054688 36.46875 C 11.316406 36.625 11.476562 36.910156 11.476562 37.222656 L 11.476562 42.457031 C 11.476562 42.765625 11.652344 43.050781 11.914062 43.207031 L 16.09375 45.671875 C 16.226562 45.753906 16.390625 45.753906 16.519531 45.671875 C 16.648438 45.597656 16.730469 45.453125 16.730469 45.296875 L 16.746094 34.089844 C 16.746094 33.753906 16.605469 33.503906 16.320312 33.339844 L 9.273438 29.164062 C 9.15625 29.09375 9.027344 29.070312 8.894531 29.0625 Z M 72.132812 29.164062 C 71.980469 29.164062 71.839844 29.203125 71.710938 29.28125 L 64.660156 33.457031 C 64.398438 33.609375 64.238281 33.898438 64.238281 34.207031 L 64.238281 42.558594 C 64.238281 42.871094 64.410156 43.15625 64.675781 43.3125 L 71.667969 47.402344 C 71.925781 47.550781 72.238281 47.5625 72.5 47.414062 L 76.734375 44.996094 C 76.871094 44.917969 76.960938 44.773438 76.960938 44.617188 C 76.960938 44.460938 76.882812 44.320312 76.75 44.242188 L 69.660156 40.066406 C 69.527344 39.988281 69.433594 39.832031 69.433594 39.675781 L 69.433594 37.0625 C 69.433594 36.90625 69.527344 36.765625 69.660156 36.6875 L 71.863281 35.382812 C 71.996094 35.304688 72.15625 35.304688 72.289062 35.382812 L 74.496094 36.6875 C 74.636719 36.769531 74.707031 36.894531 74.707031 37.0625 L 74.707031 39.121094 C 74.707031 39.289062 74.777344 39.414062 74.917969 39.5 C 75.050781 39.578125 75.210938 39.578125 75.34375 39.5 L 79.566406 36.976562 C 79.828125 36.820312 79.988281 36.535156 79.988281 36.222656 L 79.988281 34.207031 C 79.988281 33.875 79.847656 33.621094 79.566406 33.453125 L 72.558594 29.28125 C 72.429688 29.203125 72.289062 29.164062 72.136719 29.164062 Z M 51.0625 35.398438 C 51.101562 35.398438 51.140625 35.40625 51.175781 35.425781 L 53.589844 36.863281 C 53.65625 36.898438 53.703125 36.972656 53.703125 37.050781 L 53.703125 39.917969 C 53.703125 39.996094 53.65625 40.070312 53.589844 40.109375 L 51.175781 41.542969 C 51.109375 41.582031 51.027344 41.582031 50.964844 41.542969 L 48.546875 40.109375 C 48.484375 40.070312 48.433594 39.996094 48.433594 39.917969 L 48.433594 37.050781 C 48.433594 36.972656 48.484375 36.902344 48.546875 36.863281 L 50.964844 35.425781 C 50.996094 35.40625 51.023438 35.398438 51.0625 35.398438 Z M 51.0625 35.398438"/></g><g clip-path="url(#clip2)" clip-rule="nonzero"><path style="stroke:none;fill-rule:nonzero;fill:#83cd29;fill-opacity:1" d="M 29.976562 29.121094 C 29.824219 29.121094 29.683594 29.160156 29.554688 29.238281 L 22.507812 33.398438 C 22.242188 33.554688 22.082031 33.851562 22.082031 34.164062 L 22.082031 42.515625 C 22.082031 42.847656 22.222656 43.101562 22.507812 43.269531 L 29.554688 47.441406 C 29.835938 47.609375 30.117188 47.609375 30.402344 47.441406 L 37.449219 43.269531 C 37.730469 43.101562 37.871094 42.847656 37.871094 42.515625 L 37.871094 34.164062 C 37.871094 33.851562 37.710938 33.554688 37.449219 33.398438 L 30.402344 29.238281 C 30.269531 29.160156 30.128906 29.121094 29.976562 29.121094 Z M 72.117188 36.570312 C 72.089844 36.570312 72.058594 36.570312 72.035156 36.585938 L 70.679688 37.398438 C 70.625 37.429688 70.59375 37.476562 70.59375 37.542969 L 70.59375 39.136719 C 70.59375 39.195312 70.628906 39.25 70.679688 39.28125 L 72.035156 40.078125 C 72.085938 40.113281 72.136719 40.113281 72.1875 40.078125 L 73.546875 39.28125 C 73.59375 39.253906 73.628906 39.195312 73.628906 39.136719 L 73.628906 37.542969 C 73.628906 37.480469 73.59375 37.425781 73.546875 37.398438 L 72.1875 36.585938 C 72.164062 36.570312 72.148438 36.570312 72.117188 36.570312 Z M 72.117188 36.570312"/></g><g clip-path="url(#clip3)" clip-rule="nonzero"><path style="stroke:none;fill-rule:nonzero;fill:#83cd29;fill-opacity:1" d="M 40.402344 43.863281 C 40.15625 43.863281 39.917969 43.914062 39.710938 44.035156 L 33.058594 47.980469 C 32.628906 48.234375 32.367188 48.714844 32.367188 49.226562 L 32.367188 57.097656 C 32.367188 57.609375 32.628906 58.085938 33.058594 58.34375 L 34.792969 59.371094 C 35.640625 59.796875 35.949219 59.789062 36.335938 59.789062 C 37.582031 59.789062 38.296875 59.011719 38.296875 57.660156 L 38.296875 49.894531 C 38.296875 49.785156 38.203125 49.707031 38.097656 49.707031 L 37.265625 49.707031 C 37.160156 49.707031 37.070312 49.785156 37.070312 49.894531 L 37.070312 57.664062 C 37.070312 58.261719 36.460938 58.867188 35.472656 58.359375 L 33.667969 57.273438 C 33.601562 57.238281 33.554688 57.171875 33.554688 57.097656 L 33.554688 49.226562 C 33.554688 49.152344 33.601562 49.078125 33.667969 49.039062 L 40.304688 45.109375 C 40.367188 45.074219 40.441406 45.074219 40.503906 45.109375 L 47.140625 49.039062 C 47.203125 49.078125 47.253906 49.148438 47.253906 49.226562 L 47.253906 57.097656 C 47.253906 57.171875 47.214844 57.25 47.152344 57.285156 L 40.503906 61.214844 C 40.445312 61.25 40.363281 61.25 40.304688 61.214844 L 38.597656 60.171875 C 38.542969 60.140625 38.476562 60.144531 38.425781 60.171875 C 37.953125 60.445312 37.867188 60.476562 37.425781 60.636719 C 37.316406 60.675781 37.148438 60.734375 37.480469 60.925781 L 39.710938 62.273438 C 39.925781 62.402344 40.160156 62.464844 40.402344 62.464844 C 40.648438 62.464844 40.882812 62.402344 41.097656 62.273438 L 47.746094 58.347656 C 48.179688 58.089844 48.441406 57.613281 48.441406 57.101562 L 48.441406 49.230469 C 48.441406 48.71875 48.179688 48.238281 47.746094 47.984375 L 41.097656 44.039062 C 40.886719 43.917969 40.648438 43.867188 40.402344 43.867188 Z M 42.179688 49.488281 C 40.285156 49.488281 39.160156 50.3125 39.160156 51.691406 C 39.160156 53.179688 40.277344 53.59375 42.097656 53.777344 C 44.269531 53.996094 44.441406 54.324219 44.441406 54.761719 C 44.441406 55.523438 43.847656 55.851562 42.449219 55.851562 C 40.691406 55.851562 40.304688 55.398438 40.175781 54.5 C 40.160156 54.402344 40.089844 54.328125 39.992188 54.328125 L 39.128906 54.328125 C 39 54.328125 38.933594 54.398438 38.929688 54.527344 C 38.929688 55.679688 39.539062 57.035156 42.449219 57.035156 C 44.550781 57.035156 45.765625 56.191406 45.765625 54.703125 C 45.765625 53.230469 44.785156 52.835938 42.742188 52.558594 C 40.683594 52.277344 40.484375 52.140625 40.484375 51.644531 C 40.484375 51.234375 40.652344 50.6875 42.179688 50.6875 C 43.542969 50.6875 44.046875 50.988281 44.253906 51.933594 C 44.273438 52.023438 44.347656 52.09375 44.4375 52.09375 L 45.300781 52.09375 C 45.355469 52.09375 45.40625 52.0625 45.445312 52.023438 C 45.480469 51.980469 45.503906 51.933594 45.5 51.878906 C 45.367188 50.25 44.308594 49.484375 42.179688 49.484375 Z M 42.179688 49.488281"/></g></g></svg>
